<?xml version="1.0" encoding="utf-8"?>
<!-- Generator: Adobe Illustrator 25.2.0, SVG Export Plug-In . SVG Version: 6.00 Build 0)  -->
<svg version="1.1" id="Layer_1" xmlns="http://www.w3.org/2000/svg" xmlns:xlink="http://www.w3.org/1999/xlink" x="0px" y="0px"
	 viewBox="0 0 126.2 145.5" style="enable-background:new 0 0 126.2 145.5;" xml:space="preserve">
<style type="text/css">
	.st0{fill:#F89621;}
	.st1{fill:none;}
</style>
<g>
	<g id="Layer_2_1_">
		<g id="Layer_5">
			<path class="st0" d="M63.9,0c0.7,0.8,1.2,1.7,1.7,2.6c1.7,5.7,5.3,10.6,10.2,14c3.4,2.5,6.6,5.3,10.4,8.3
				c1.3-1.1,2.7-2.2,4.1-3.2c0.8-0.5,2.1-0.9,2.8-0.6s1,1.8,1,2.7c-0.2,1.7-0.4,3.4-0.8,5.1l15,5.9c4.7,1.7,9.8,2.1,14.7,0.9
				c1-0.2,2.2,0.4,3.3,0.6c-0.3,1.2-0.3,2.6-1,3.4c-4.1,4.4-6.6,10.1-7,16.1c-0.4,4.1-1.3,8.2-2,12.8c1.6,0.6,3.2,1.2,4.7,2
				c0.9,0.5,1.7,1.3,2,2.3c0.1,0.6-1.1,1.6-1.9,2.1c-1.6,0.7-3.1,1.4-4.8,1.9c0.8,5.1,1.7,9.7,2.2,14.4c0.6,5.4,3,10.5,6.7,14.5
				c0.7,0.8,0.8,2.2,1.2,3.4c-1.2,0.2-2.4,0.9-3.5,0.7c-5.3-1.2-10.9-0.7-15.9,1.5c-4.3,1.8-8.8,3.4-13.6,5.3
				c0.3,1.7,0.6,3.4,0.7,5.1c0,0.9-0.3,2.3-0.9,2.7s-2,0-2.8-0.5c-1.4-1-2.8-2-4.1-3.2c-4.3,3.4-8.4,6.7-12.4,9.9
				c-3.9,3.1-6.7,7.4-8.2,12.2c-0.4,1.2-1.2,2.1-2.3,2.6c-1.6,0.4-2-1.2-2.4-2.4c-1.6-5.6-5.1-10.4-9.9-13.7
				c-3.5-2.6-6.9-5.5-10.7-8.5c-1.3,1.1-2.6,2.2-4,3.1c-0.9,0.6-2,0.8-3,0.6c-0.5-0.2-0.8-1.8-0.8-2.7c0.2-1.7,0.4-3.3,0.7-5
				c-5.9-2.3-11.3-4.5-16.9-6.5c-4.1-1.5-8.4-1.2-12.7-0.3c-1.1,0.2-2.3,0-3.2-0.7c-1.1-1.2-0.1-2.3,0.9-3.3c4.1-4.2,6.5-9.7,7-15.6
				c0.5-4.3,1.3-8.6,2-13.3c-1.6-0.6-3.1-1.2-4.7-1.9c-0.9-0.5-1.7-1.3-2-2.3c-0.1-0.6,1.1-1.6,1.9-2.1c1.7-0.9,3.5-1.4,4.7-2
				C9.6,63.5,8.8,58.8,8.2,54c-0.6-5.3-3-10.3-6.8-14.2c-0.9-1-1.9-2-1-3.4s2.2-1,3.5-0.7c5.5,1.3,11.4,0.7,16.5-1.7
				c4-1.8,8.2-3.2,12.8-5c-0.3-1.7-0.5-3.4-0.7-5.1c0-0.9,0.2-2.3,0.9-2.7s2,0,2.8,0.5c1.4,1,2.8,2.1,4.1,3.2
				c4.4-3.5,8.5-6.7,12.5-10c3.8-3.1,6.5-7.2,7.9-11.9C61.2,2,61.8,1,62.5,0H63.9z M63.2,104.7c17.6,0,31.9-14.3,31.9-31.9
				c0-17.6-14.3-31.9-31.9-31.9c-17.6,0-31.9,14.2-31.9,31.8c-0.1,17.6,14.1,31.9,31.7,32C63.1,104.7,63.1,104.7,63.2,104.7z
				 M7.8,104.5c3.1,0.3,6.2,0.8,9.2,1.4c2.8,0.9,5.6,2,8.3,3.3c2.2,0.9,4.5,1.6,6.8,2.5l0.5-0.6c-0.8-1.9-1.6-3.9-2.5-5.8
				c-2.2-5.1-2.9-5.5-8.6-4.8c-0.8,0.2-1.6,0.4-2.5,0.4c-1-0.1-2.5-0.3-2.7-0.8c-0.2-1,0-2.1,0.6-3c1.2-2.2,2.7-4.4,4-6.6
				c0.3-0.5,0.4-1.1,0.2-1.7c-2.1-2.9-4.3-5.7-6.7-8.9C11.7,88.4,13.5,97.4,7.8,104.5z M93.8,111.7c8.8-2.2,15.7-8,24.7-6.7
				c-1.2-2.8-2.5-5-3.1-7.5c-0.9-3.8-1.2-7.7-1.9-11.5c-0.3-1.9-0.8-3.8-1.3-6.2c-2.5,3.3-4.7,6-6.7,8.7c-0.3,0.6-0.3,1.3,0,1.9
				c1.3,2.2,2.7,4.4,4,6.6c0.5,0.9,1.1,2.3,0.7,2.9s-1.9,0.9-2.9,0.9c-2.5,0-5-0.2-7.5-0.2c-0.7,0-1.3,0.3-1.8,0.8
				C96.6,104.6,95.3,107.9,93.8,111.7L93.8,111.7z M45.3,26.3l0.3,0.8c2.2,0.3,4.4,0.5,6.6,0.8c4.8,0.6,5.5,0.2,7.6-4.2
				c0.4-1.1,0.8-2.1,1.3-3.2c0.5-0.9,1.4-1.9,2.3-2c0.6-0.1,1.6,1.1,2,1.9c1.3,2.3,2.5,4.7,3.8,7c0.4,0.5,1,0.9,1.6,0.9
				c3.4-0.4,6.7-0.9,10.7-1.4c-6-6.6-14.8-9.6-18-18c-1.7,2.4-3.5,4.7-5.4,6.9c-2.1,1.9-4.3,3.7-6.5,5.3
				C49.4,22.9,47.4,24.6,45.3,26.3z M94.5,34l-0.4,0.6c1.3,3.2,2.6,6.4,4,9.6c0.4,0.5,1,0.7,1.6,0.7c2.6,0,5.1-0.2,7.7-0.2
				c1,0,2.5,0.2,2.9,0.9s-0.2,2-0.7,2.9c-1.2,2.2-2.7,4.4-4,6.6c-0.3,0.6-0.3,1.3,0,1.9c2,2.8,4.1,5.4,6.6,8.6
				c2.7-8.5,1-17.5,6.7-24.8c-2.2-0.1-3.9,0.1-5.5-0.4c-4-1.2-8-2.6-11.9-4C99.1,35.8,96.8,34.9,94.5,34z M63.1,137
				c1.2-1.8,2-3.6,3.3-4.8c2.8-2.8,5.9-5.3,8.9-7.8c2-1.7,4-3.3,6.1-5l-0.3-0.6c-3.5-0.5-6.9-1-10.4-1.3c-0.6,0.1-1.1,0.5-1.4,1
				c-1.3,2.2-2.3,4.4-3.6,6.5c-0.7,0.9-1.4,1.8-2.3,2.5c-0.9-0.7-1.6-1.6-2.3-2.5c-0.7-1.2-1-2.6-1.7-3.8c-2-3.7-2.4-3.9-6.6-3.4
				c-1.1,0.1-2.3,0.2-3.4,0.3c-1.3,0.2-2.6,0.4-4.4,0.7C51.1,125.3,59.7,128.4,63.1,137z M32.7,34c-8.8,2-15.7,8-25.2,6.6
				c4.2,5.9,4.8,11.9,5.4,18c0.2,2.2,0.8,4.4,1.2,6.6c2.5-2.5,4.8-5.2,6.9-8.1c0.3-0.6,0.2-1.3-0.1-1.9c-1.3-2.2-2.8-4.3-4-6.6
				c-0.5-0.9-1-2.3-0.7-2.9s1.9-0.8,2.9-0.9c2.6,0,5.1,0.2,7.7,0.2c0.6,0,1.2-0.3,1.6-0.7C29.8,41.1,31.1,37.8,32.7,34z M113.7,72.8
				l-9.1-9.2l-3.4,9.2c1.2,3.2,2.4,6.4,3.5,9.3L113.7,72.8z M25.3,72.8l-3.5-9.2l-9.1,9.2l9.1,9.3C23,79.2,24.2,76,25.3,72.8
				L25.3,72.8z M38,116.6l12.6-3.2l-6.3-7.7l-9.7-1.6C35.7,108.2,36.9,112.6,38,116.6z M88.5,116.6c1.1-4.1,2.3-8.5,3.3-12.3
				c-2.8,0.3-5.9,0.6-9.1,1c-0.4,0-0.8,0.2-1.1,0.5c-2,2.6-3.9,5.3-5.6,7.6L88.5,116.6z M88.5,29.1l-12.4,3.2
				c1.7,2.3,3.5,4.8,5.4,7.4c0.2,0.3,0.6,0.6,1,0.7c3.2,0.4,6.5,0.8,9.3,1.1C90.8,37.6,89.6,33.2,88.5,29.1L88.5,29.1z M34.6,41.5
				c2.7-0.3,5.8-0.7,8.8-1.1c0.4,0,1-0.1,1.2-0.3c2-2.7,4-5.4,5.9-8c-2.2-0.2-4.3-0.6-6.5-1.1c-2-0.6-4-1.4-6-2.2
				C36.9,33.1,35.7,37.5,34.6,41.5z M75.6,107.2c-8.3,2.6-17.1,2.5-25.3-0.4l12.9,11.4L75.6,107.2z M99.2,79.3
				c-1.9,8.5-6.5,16.1-13.1,21.7l16.3-5.5L99.2,79.3z M75.6,38.4L63.2,27.5L51.1,38.3C59.1,36,67.6,36,75.6,38.4z M39.6,45
				l-15.5,5.2l3.2,16.1C29.2,58.2,33.5,50.7,39.6,45z M86.8,45c6.2,5.7,10.4,13.2,12.3,21.4c1.1-5.6,2.3-11.1,3.3-16.2L86.8,45z
				 M24.1,95.4l15.7,5.3C33.4,94.9,29,87.1,27.5,78.6L24.1,95.4z"/>
		</g>
	</g>
	<rect x="-2.8" class="st1" width="131.8" height="145.4"/>
</g>
</svg>
