<?xml version="1.0" encoding="utf-8"?>
<!-- Generator: Adobe Illustrator 25.2.0, SVG Export Plug-In . SVG Version: 6.00 Build 0)  -->
<svg version="1.1" id="Layer_1" xmlns="http://www.w3.org/2000/svg" xmlns:xlink="http://www.w3.org/1999/xlink" x="0px" y="0px"
	 viewBox="0 0 173.8 90.8" style="enable-background:new 0 0 173.8 90.8;" xml:space="preserve">
<style type="text/css">
	.st0{fill:#F89621;}
	.st1{fill:none;}
</style>
<g>
	<g id="Layer_2_1_">
		<g id="Layer_5">
			<path class="st0" d="M171.2,43.9c-6.7-1.7-12.6-5.4-17-10.7c-2.4-2.8-4.7-5.6-7-8.5c-7.2-9.3-16.8-13.6-28.4-13.8
				c-1.7,0-3.3-0.6-4.6-1.6C98.3-2.9,76.2-3.1,60,8.8c-1.2,0.9-2.6,1.3-4.1,1.4c-11.8,0.1-21.6,4.2-29.1,13.5
				c-2.3,2.9-4.7,5.6-7.1,8.4c-4.4,5.1-10.3,8.6-16.8,10.1C1.4,42.4,0,42.7,0,44.5c0,1.6,1.4,2,2.7,2.3c6.2,1.5,11.8,4.9,16,9.7
				c2.6,2.9,5.1,5.9,7.5,9c7.4,9.7,17.3,14.2,29.4,14.3c1.3,0.1,2.5,0.5,3.5,1.3c5.2,4,11.1,6.8,17.4,8.3c1.8,0.4,3.7,0.8,5.6,1.2
				l8.7,0.1c1.9-0.4,3.9-0.7,5.8-1.1c6.4-1.4,12.5-4.2,17.7-8.2c0,0,2.2-2.2,9.1-2.2c6.1,0.1,12.5-2.7,16.3-5.4
				c3.2-2.5,6.1-5.4,8.6-8.6c1.8-2.2,3.6-4.3,5.5-6.4c4.5-5.2,10.6-8.9,17.4-10.5c0.9-0.3,1.8-0.8,2.5-1.3v-1.8
				C173,44.7,172.1,44.3,171.2,43.9z M85.2,4.4c18.6-0.9,31.7,10.7,36.4,19.6l-69.3-0.7C60.5,11.5,71.2,5.1,85.2,4.4L85.2,4.4z
				 M33.4,67.1c-1.7-1.7-3.4-3.6-4.9-5.5c-5.3-6.7-10.5-13.3-19-16.9c1.1-0.5,1.7-0.9,2.4-1.2c5.4-2.7,9.6-6.7,13.4-11.3
				c2.7-3.2,5.3-6.3,8.2-9.3c5.3-5.3,11.9-7.8,19.6-8.2c-15.2,20-15.5,40.1-0.7,60.7C45,74.8,38.6,72.2,33.4,67.1z M49,30
				c11.2,18.7,22.2,37.2,33.4,56C55.8,83.4,38.6,55.2,49,30z M52.7,27.8l68.7,0.7L86.5,84.4L52.7,27.8z M90.5,86.1L125,30.8
				C135,56,117.2,84.1,90.5,86.1L90.5,86.1z M163.7,46.4c-6.4,2.8-11.3,7.4-15.7,12.7c-2.3,2.8-4.6,5.5-7.1,8.1
				c-5.4,5.6-12.2,8.4-20.2,8.8c15.2-20.1,15.4-40.1,0.6-60.7c7.6,0.6,14.1,3.2,19.3,8.5c2.3,2.4,4.5,5,6.6,7.6
				c4.6,5.9,9.6,11.3,16.6,14.3C163.7,46.2,163.8,46.4,163.7,46.4z"/>
		</g>
	</g>
	<rect class="st1" width="173.8" height="90.8"/>
</g>
</svg>
