<?xml version="1.0" encoding="utf-8"?>
<!-- Generator: Adobe Illustrator 25.2.0, SVG Export Plug-In . SVG Version: 6.00 Build 0)  -->
<svg version="1.1" id="Layer_1" xmlns="http://www.w3.org/2000/svg" xmlns:xlink="http://www.w3.org/1999/xlink" x="0px" y="0px"
	 viewBox="0 0 127 130.5" style="enable-background:new 0 0 127 130.5;" xml:space="preserve">
<style type="text/css">
	.st0{fill:#F89621;}
	.st1{fill:none;}
</style>
<g>
	<g id="Layer_2_1_">
		<g id="Layer_5">
			<path class="st0" d="M0,50.2c1.1-0.4,2.2-0.8,3.3-1.2c2.5-0.8,5.1-1.5,7.5-2.4s4.9-2.3,7-3.3c-0.6-2.9-1-6.2-1.9-9.3
				c-0.6-2.1-2-4.1-2.8-6.2c-0.3-1.1-0.4-2.2-0.4-3.3c1-0.1,2.2-0.6,3.1-0.2c2.7,1.2,5.6,1.6,8.5,1.3c2.5-0.2,5.1-0.2,7.6-0.1
				c0.8-3,1.8-6.1,2.4-9.4c0.4-2.2-0.1-4.5,0.1-6.8c0-1,0.4-2,1.1-2.8c0.5-0.3,2.1,0.2,2.6,0.9c2.2,2.6,5.1,4.4,8.3,5.4
				c2,0.8,3.9,1.8,5.7,3c1.9-2.3,4.1-4.6,5.9-7.1c1.4-2,2.2-4.3,3.4-6.4c0.6-0.9,1.4-1.6,2.2-2.3c0.7,0.7,1.9,1.4,2.2,2.2
				c0.8,3,2.4,5.8,4.7,7.9c1.6,1.7,3,3.6,4.3,5.5c3-1.3,6.2-2.6,9.3-4.2c1.8-1,3.1-2.6,4.8-3.8c0.9-0.5,1.9-0.9,2.9-1.2
				c0.4,1,1.2,2.2,1,3.1c-0.5,2.9-0.2,5.8,0.7,8.6c0.7,2.6,1.2,5.2,1.5,7.9c1.7-0.1,3.7-0.6,5.7-0.4c4.1,0.5,8,0.5,11.8-1.5
				c0.7-0.2,1.5-0.1,2,0.4c0.4,0.7,0.6,2,0.2,2.4c-2.9,3.3-3.5,7.3-4,11.5c-0.3,1.5-0.8,3-1.5,4.5c3.1,1.7,6,3.6,9.3,5
				c2,0.9,4.3,0.9,6.4,1.4c0.8,0.2,2,0.7,2.2,1.3c0,0.9-0.4,1.7-1.2,2.2c-3.8,1.7-6.2,4.8-8.2,8.4c-1,1.4-2.1,2.7-3.3,3.8
				c1.9,2.5,3.7,5.3,5.9,7.8c1.5,1.7,3.6,2.8,5.2,4.3c0.7,0.7,1.7,1.8,1.6,2.6c-0.5,0.9-1.4,1.5-2.5,1.6c-3.1,0.1-6.2,1.1-8.8,2.9
				c-2.1,1.1-4.2,2.1-6.4,3c0.6,2.6,1,5.4,1.8,8s2,4.9,2.9,7.3c0.4,1,0.9,2.4,0.5,3.2c-0.7,1.5-2.1,0.7-3.4,0.4
				c-2.3-0.6-4.7-1.1-7.1-1.3c-3-0.2-6,0-8.6,0c-0.7,2.8-1.7,5.7-2.1,8.7c-0.4,2.4-0.2,5-0.4,7.4c-0.2,1-0.5,2-0.8,3
				c-1-0.3-2.5-0.4-3.1-1.1c-2-2.3-4.6-4-7.5-5c-2.2-0.9-4.3-2-6.3-3.1c-2,2.3-4.2,4.7-6.1,7.3c-1.3,1.8-2,4.1-3.1,6
				c-0.7,0.9-1.4,1.7-2.3,2.4c-0.7-0.8-1.9-1.5-2.2-2.5c-0.8-2.8-2.3-5.3-4.4-7.4c-1.6-1.8-3.2-3.8-4.6-5.8
				c-2.9,1.3-6.2,2.5-9.3,4.2c-1.8,1-3.1,2.7-4.8,3.8c-1,0.5-2.1,1-3.2,1.2c-0.3-1-1-2.1-0.8-3c0.5-3,0.2-6.1-0.8-9
				c-0.7-2.4-1.2-4.8-1.5-7.2c-2.9,0-6.1-0.2-9.2,0.1c-2.3,0.2-4.6,1-6.9,1.3c-1.1,0-2.2-0.1-3.3-0.3c0.2-1.1,0-2.4,0.6-3.3
				c1.6-2.3,2.7-5,3-7.8c0.4-2.5,1-5,1.7-7.4c-2.7-1.4-5.6-3.1-8.6-4.4c-1.9-0.8-4.1-1-6.1-1.6C2.1,81,1,80.6,0,80.1v-1.8
				c6.6-2.2,8.3-9.3,13.1-12.7C11.3,63.3,9.8,61,7.9,59s-3.8-3.7-5.7-5.4c-0.7-0.5-1.4-1.1-2.2-1.5V50.2z M44.4,67.1
				c0,10.7,8.6,19.3,19.2,19.4c10.7,0,19.3-8.6,19.4-19.2s-8.6-19.3-19.2-19.4c0,0-0.1,0-0.1,0C53,47.9,44.4,56.5,44.4,67.1z
				 M98.4,43.7C95,35.9,80.8,24.1,63.9,24.1S33.5,34.7,29.2,43.7H98.4z M101.6,50.1L67.7,106C94.6,103.6,111.9,75.2,101.6,50.1
				L101.6,50.1z M59.6,105.9l-34-55.7C15.2,75.8,33.5,104,59.6,105.9L59.6,105.9z M98.4,48H77.3c5.6,4.2,9.2,10.6,9.9,17.6
				C91.1,59.5,94.6,53.9,98.4,48z M49.8,48H29.2l10.5,17.2C40.7,58.4,44.4,52.2,49.8,48z M54.4,89.2l9.3,15.1
				c3.2-5.2,6.2-10.1,9.3-15.3C64.6,91.1,64.6,91.1,54.4,89.2L54.4,89.2z M103.4,43.1c4.3-3.4,3.2-8.6,4.6-13.2
				c-4.9,0.3-9.8-2-13.9,1.5C97.2,35.3,100.3,39.2,103.4,43.1L103.4,43.1z M71,110.3H56.4c-0.2,5.4,4.8,7.5,7.2,11.5
				C66.1,117.9,70.9,115.7,71,110.3z M106,48.1c1.1,4.8,2.1,9.5,3.2,14.2c5.5-0.9,6.5-6.2,9.7-9.5C110.3,47.8,109.9,47.7,106,48.1z
				 M39.1,14.3c-0.6,4.7-4,8.8-1.6,13.5l13.1-6.3C48.5,16.6,43.1,16.8,39.1,14.3z M107.8,100.5c-1.4-4.5-0.2-9.6-4.3-12.8l-9.1,11.4
				C98.4,102.4,103.1,100.1,107.8,100.5z M39.1,116.2c3.9-2.5,9.3-2.3,11.5-7.2l-13.2-6.3C35.2,107.6,38.5,111.6,39.1,116.2z
				 M109.3,67.6c-1.2,5.4-2.3,10.1-3.3,14.8c5.2,1.2,8.4-2.9,12.5-4.5c-1.2-2.1-2.5-4-4-5.9C112.9,70.4,111.2,68.9,109.3,67.6z
				 M71,20.2c0-5.4-4.8-7.6-7.3-11.5c-2.5,4-7.4,6.1-7.2,11.5H71z M33,31.4c-4.1-3.3-8.8-1-13.5-1.3c1.5,4.5,0.2,9.6,4.4,12.8
				L33,31.4z M19.5,100.5c4.8-0.4,9.5,1.9,13.4-1.4l-9.1-11.4C19.7,90.9,20.9,96,19.5,100.5z M18.1,62.3c1.1-4.8,2.2-9.5,3.2-14.2
				c-5.2-1.2-8.4,3-12.8,4.7C11.9,56,12.9,61.3,18.1,62.3z M18.1,68.2c-5.2,1.2-6.2,6.3-9.5,9.6c4.4,1.6,7.6,5.9,12.7,4.6L18.1,68.2
				z M76.6,21.4l13.1,6.3c2.2-4.7-1-8.8-1.7-13.4C84.1,16.8,78.8,16.6,76.6,21.4z M89.8,102.8l-13.1,6.3c2.2,4.8,7.4,4.7,11.5,7.1
				C88.8,111.6,92.1,107.5,89.8,102.8z"/>
		</g>
	</g>
	<rect y="1.9" class="st1" width="128.5" height="128.5"/>
</g>
</svg>
