<?xml version="1.0" encoding="utf-8"?>
<!-- Generator: Adobe Illustrator 25.2.0, SVG Export Plug-In . SVG Version: 6.00 Build 0)  -->
<svg version="1.1" id="Layer_1" xmlns="http://www.w3.org/2000/svg" xmlns:xlink="http://www.w3.org/1999/xlink" x="0px" y="0px"
	 viewBox="0 0 121.2 121.3" style="enable-background:new 0 0 121.2 121.3;" xml:space="preserve">
<style type="text/css">
	.st0{fill:#F89621;}
	.st1{fill:none;}
</style>
<g>
	<g id="Layer_2_1_">
		<g id="Layer_5">
			<path class="st0" d="M48.1,109.6c-2.7,0.6-5.5,1.1-8.3,1.4c-2.5,0.2-5,0.3-7.1,2c-0.8,0.4-1.7,0.5-2.5,0.1
				c-0.6-0.4-0.8-1.5-1-2.3c-0.4-1.8-0.4-3.8-1.1-5.5c-1.4-3-3.4-5.7-2.8-8.4c-3.2-1.3-5.9-2.5-8.7-3.4c-2-0.7-4.1-0.9-6.1-1.5
				c-0.9-0.2-2-0.5-2.4-1.1s0.1-1.7,0.3-2.5C9,86.3,10,84.2,10.2,82c0.2-2.9,0.2-5.8,2.4-8.4c-3.4-1.1-4.8-4-6.6-6.6
				c-1.1-1.6-2.9-2.8-4.4-4.2C1,62.2,0,61.4,0,60.7s1-1.5,1.6-2.1C3.2,57,5,55.8,6.2,54c1.7-2.5,3.1-5.1,6.4-6.1
				c-1.8-2.3-2.7-5.2-2.3-8.1c0.2-2.5-0.5-4.9-1.9-6.9c-0.5-0.7-0.6-1.7-0.2-2.5c0.4-0.6,1.5-0.8,2.3-1c2.2-0.6,4.4-0.9,6.5-1.6
				c2.7-0.9,5.3-2,8.4-3.2c-0.7-3,1.6-5.8,3-9c0.7-1.4,0.5-3.2,0.9-4.9c0.2-0.9,0.4-2.1,1-2.5s1.8,0.1,2.7,0.3
				c2.2,0.5,4.3,1.5,6.5,1.7c2.9,0.2,5.8,0.2,8.4,2.4c1.2-3.3,3.8-4.8,6.4-6.5c1.7-1.1,2.8-3,4.3-4.5C59.2,1,59.9,0.1,60.7,0
				c0.9,0.1,1.6,0.7,2,1.5c1,2.4,3,3.7,5,5.1c2.2,1.5,4.1,3.4,6.6,5.4c2.1-2,5.5-1.6,8.9-1.8c1.7-0.1,3.3-1.1,4.9-1.6
				c0.9-0.3,2.2-0.9,2.8-0.5s0.8,1.7,1.1,2.6c0.6,2,0.9,4.1,1.6,6.1c0.9,2.8,2.1,5.4,3.3,8.5c2.8-0.7,5.5,1.4,8.4,2.8
				c1.6,0.8,3.5,0.7,5.2,1.2c1,0.2,2.2,0.4,2.7,1.1c0.4,0.5-0.2,1.8-0.4,2.6c-0.6,2.2-1.3,4.3-1.7,6.5c-0.6,2.7-0.9,5.4-1.5,8.6
				c2.7,0.8,4,3.9,5.9,6.6c1,1.5,2.8,2.5,4.1,3.8c0.7,0.6,1.7,1.4,1.7,2.1s-0.9,1.5-1.6,2.2c-1.4,1.4-3.2,2.5-4.4,4.2
				c-1.8,2.6-3.1,5.5-6.7,6.6c2.3,2.7,2.2,5.7,2.5,8.7c0.2,2.1,1.2,4.2,1.8,6.2c0.2,0.9,0.6,2,0.2,2.7s-1.5,0.7-2.3,0.9
				c-2,0.5-4.1,0.8-6.1,1.4c-2.8,0.9-5.6,2.2-8.1,3.2c-1,2.5-2.2,5.2-3.1,8c-0.7,2-0.9,4.1-1.5,6.1c-0.2,0.9-0.5,2-1.1,2.5
				c-0.8,0.3-1.7,0.2-2.4-0.3c-2-1.6-4.3-1.7-6.7-1.9c-2.7-0.2-5.4-0.9-8.5-1.4c-0.8,2.6-3.7,3.9-6.2,5.7c-1.6,1.1-2.8,2.9-4.2,4.4
				c-0.6,0.7-1.4,1.6-2.2,1.6s-1.5-1-2.1-1.6c-1.6-1.6-3-3.5-4.8-4.7C51.4,113.4,49,112,48.1,109.6z M60.6,43.3
				c-3.9,0-7.8-0.1-11.7,0.1c-0.9,0.1-1.8,0.5-2.3,1.3c-3.1,4.9-6.1,9.9-9.1,14.9c-0.4,0.8-0.4,1.6,0,2.4c2.9,5,6,10,9.1,14.9
				c0.6,0.7,1.4,1.2,2.3,1.3c7.8,0.1,15.6,0.1,23.4,0c0.9-0.1,1.8-0.6,2.3-1.3c3.1-4.8,6-9.8,9-14.6c0.7-0.8,0.7-2,0-2.9
				c-3-4.8-6-9.6-8.8-14.5c-0.5-1-1.6-1.6-2.8-1.5C68.3,43.4,64.4,43.3,60.6,43.3z M64.5,19.8c4,6.6,7.6,12.6,11.4,18.5
				c0.6,0.5,1.4,0.8,2.2,0.8c3,0.1,6,0,8.9,0h8.7C88,27.8,78,21.5,64.5,19.8z M56.6,20.1c-10.2-0.5-27.6,10.4-30.3,19
				c5.9,0,11.8,0,17.6-0.1c0.8-0.2,1.6-0.7,2-1.5c2.2-3.4,4.2-6.9,6.3-10.4C53.7,24.9,55.1,22.6,56.6,20.1z M25.7,82.4
				c7.6,11.3,17.6,17.6,31,19.2c-3.9-6.4-7.6-12.4-11.2-18.4c-0.3-0.4-0.7-0.7-1.2-0.8C38.2,82.3,32.2,82.4,25.7,82.4z M64.5,101.6
				c13.5-1.8,23.5-8,31-19.3c-6.5,0-12.5,0-18.5,0c-0.5,0.1-1,0.4-1.2,0.8C72.1,89.1,68.5,95.1,64.5,101.6z M98.8,45.5
				c-3.1,5.1-5.9,9.7-8.7,14.4c-0.3,0.5-0.3,1.1-0.1,1.6c2.8,4.7,5.7,9.4,8.8,14.4C102.6,66.1,102.6,55.3,98.8,45.5z M22.7,45.8
				c-4.1,7.7-4,22.5,0.1,29.7c2.9-4.8,5.8-9.4,8.6-14.1c0.2-0.4,0.2-0.8,0.1-1.2C28.5,55.4,25.6,50.7,22.7,45.8z M71.2,39
				c-3.6-5.9-7-11.5-10.6-17.4L50,39H71.2z M50,82.4l10.6,17.4c3.6-5.9,7-11.5,10.6-17.4H50z M42.3,78l-8.1-13.2L26.2,78H42.3z
				 M79,77.9h16l-8-13.1L79,77.9z M87,56.6l8-13.1H79L87,56.6z M26.2,43.4l8.1,13.2c2.8-4.6,5.3-8.8,8.1-13.2H26.2z M13.6,33.5
				c2.1,4.3-0.9,9.6,3.9,12.7c1.4-2.8,2.5-5.5,4-8.1s3.3-5,5.1-7.6C21.4,27.9,18.3,33.2,13.6,33.5z M30.3,26.3L46,17.2
				c-3.2-4.5-8.3-1.5-12.5-3.5C33.1,18.4,27.9,21.4,30.3,26.3z M69.7,105.7H51.5c0.6,5.5,6.5,5.6,8.9,8.9c2.1-1.4,3.9-2.6,5.8-3.8
				S69.6,108.1,69.7,105.7z M105.5,69.8c5.5-0.5,5.5-6.5,9.4-9.2c-3.9-2.5-3.9-8.6-9.4-9V69.8z M26.2,91.1l-9.1-15.8
				c-4.4,3.1-1.6,8.3-3.4,12.6C18.4,88.3,21.4,93.5,26.2,91.1z M107.6,87.9c-2.1-4.1,1.1-9.5-3.5-12.5L95,91.1
				C99.8,93.5,102.9,88.3,107.6,87.9z M15.8,51.6c-5.5,0.5-5.6,6.5-9,8.9c1.4,2.1,2.7,4,3.9,5.9s2.8,3.5,5.1,3.3L15.8,51.6z
				 M87.8,14.1c-11,0.7-11,0.7-12.4,3.1L91,26.3C93.3,21.4,88.2,18.4,87.8,14.1z M104.1,46.1c4.4-3.2,1.5-8.4,3.2-12.1
				c-2.3-1.2-4.3-2.2-6.3-3.2s-4.2-1.6-6-0.4C98.1,35.7,101.1,40.8,104.1,46.1L104.1,46.1z M75.2,104.2c3,4.5,8.4,1.5,12.5,3.5
				c0.4-4.6,5.6-7.7,3.2-12.6L75.2,104.2z M69.7,15.8c-0.4-5.6-6.5-5.6-8.8-9c-2.1,1.4-4,2.7-5.9,3.9s-3.4,2.9-3.4,5.1L69.7,15.8z
				 M33.4,107.2l7.9-0.4c1.9,0,3.7-1,4.7-2.6l-15.7-9.1C27.8,99.9,33.1,103,33.4,107.2z"/>
		</g>
	</g>
	<rect y="-1.8" class="st1" width="121.2" height="123.1"/>
</g>
</svg>
