<?xml version="1.0" encoding="utf-8"?>
<!-- Generator: Adobe Illustrator 25.2.0, SVG Export Plug-In . SVG Version: 6.00 Build 0)  -->
<svg version="1.1" id="Layer_1" xmlns="http://www.w3.org/2000/svg" xmlns:xlink="http://www.w3.org/1999/xlink" x="0px" y="0px"
	 viewBox="0 0 118.4 124.5" style="enable-background:new 0 0 118.4 124.5;" xml:space="preserve">
<style type="text/css">
	.st0{fill:#F89621;}
	.st1{fill:none;}
</style>
<g>
	<g id="Layer_2_1_">
		<g id="Layer_5">
			<path class="st0" d="M73.6,17.8c3.5-3.5,7.3-4,11.4-3.6c2.8,0.3,5.5-0.4,7.8-2c0.8-0.5,1.9-0.7,2.8-0.3c0.7,0.7,0.9,1.8,0.7,2.7
				c-0.7,2.7-0.6,5.5,0.5,8.1c1.6,3.8,2.3,7.6,0.3,11.7c1.7,0.2,3.3,0,4.6,0.5c2.1,0.8,4,1.8,5.8,3.1c2.6,1.9,5.2,3.5,8.5,3.5
				c0.8,0,2.1,0.8,2.2,1.4c0.1,1-0.3,2-1.1,2.6c-2.2,1.7-3.7,4.1-4.3,6.8c-1,4.1-2.7,7.6-7,9.9c4.6,2.2,5.9,6.2,7.2,10.4
				c0.8,2.2,2.7,4.1,4.1,6.2c0.5,0.8,1.3,1.9,1.1,2.7c-0.5,0.8-1.4,1.4-2.4,1.5c-2.8,0.1-5.4,1.2-7.5,3c-3.1,2.7-6.5,4.6-11.4,3.8
				c2.6,5,0.7,9.4-0.7,13.9c-0.6,1.8,0.1,4,0,6.1c0,1,0,2.5-0.6,2.8c-1,0.4-2.1,0.3-3-0.3c-2.2-1.5-4.8-2.1-7.4-1.9
				c-4.3,0.4-8.3-0.1-11.7-3.6c-0.8,5.1-4.3,7.6-7.9,10.2c-1.8,1.3-2.8,3.6-4.3,5.4c-0.7,0.8-1.5,2.1-2.3,2.1s-1.6-1.2-2.3-2
				c-1.5-1.8-2.6-4.2-4.5-5.6c-3.5-2.6-7-5-7.7-10.2c-3.6,3.7-7.7,3.8-12,3.8c-2.4,0-4.7,1.2-7.1,1.9c-1,0.2-2.3,0.7-3.1,0.3
				c-0.6-0.3-0.8-1.9-0.6-2.8c0.8-2.6,0.6-5.4-0.4-7.8c-1.6-3.9-2.4-7.7-0.2-12.2c-5.5,0.9-9-2.2-12.8-4.9c-1.7-1.1-4-1.3-6-2
				c-0.8-0.3-2.1-0.8-2.4-1.5c-0.1-1,0.3-2,1.1-2.6c2.1-1.7,3.7-4,4.3-6.6c1-4.1,2.6-7.9,7-10c-3.7-2.2-6.3-6-7.1-10.3
				c-0.7-2.7-2.3-5.1-4.4-6.8c-0.6-0.6-1-1.5-0.8-2.4c0.5-0.8,1.4-1.2,2.3-1.3C5,41.8,7.6,40.8,9.5,39c3.2-3,6.7-5,11.8-4.4
				c-2.6-4.9-0.7-9.2,0.6-13.7c0.6-1.9,0-4,0.1-6.1c0-1.1,0-2.5,0.6-3s2,0,3,0.3c2.5,0.6,4.9,1.8,7.4,1.9c4.2,0.1,8.3,0.1,11.7,3.7
				c0.8-5.1,4.2-7.6,7.7-10.1c1.9-1.4,3-3.7,4.5-5.6c0.7-0.8,1.5-1.9,2.3-2c0.6-0.1,1.8,1,2.1,1.9c1,2.6,2.8,4.8,5.2,6.2
				C70,10.2,72.9,12.9,73.6,17.8z M93.6,45H24.8l34.4,56.4L93.6,45z M94.2,40.6C85.3,27.7,73.6,21,58.5,21.2
				C44,21.4,32.7,28.1,24.3,40.6L94.2,40.6z M21.2,47.2c-10.3,26.4,8.3,53.8,34,55.8C43.8,84.3,32.6,65.9,21.2,47.2L21.2,47.2z
				 M97.2,47.2l-34,55.7C89.6,100.8,107.6,72.5,97.2,47.2L97.2,47.2z M13.5,58l6-19.1c-5.2-0.5-7.7,5.1-12.7,6.3
				C10.1,49.3,9.1,55.2,13.5,58z M69.1,107.1H49.2c1.5,5.2,7.3,6,10,10.4C61.8,112.9,68,112.3,69.1,107.1z M19.5,85.5
				c-2.1-6.4-4.1-12.6-6.1-18.9c-4.4,2.8-3.2,8.8-6.4,12.2c2.2,1.5,4.2,2.7,6.1,4.1S17.1,85.8,19.5,85.5z M69.2,17.4
				c-1.4-5.2-7.4-6-10-10.4c-2.5,4.6-8.7,5.2-9.9,10.4H69.2z M91.6,17.5c-4.9,2-10.2-0.9-14,2.5l16,11.7
				C95.6,26.9,91.2,22.8,91.6,17.5z M111.1,79.3c-0.9-2.4-1.8-4.7-2.5-7s-1.5-4.6-3.5-5.6l-6.2,18.8c0.6,0.1,1.3,0,1.9-0.2
				C104.2,83.4,107.7,81.3,111.1,79.3z M105,57.8c4.5-2.7,3.2-8.7,6.7-12.7c-5.1-1.1-7.6-6.7-12.8-6.2
				C100.9,45.2,102.9,51.5,105,57.8z M77.5,104.4c4,3.3,9.3,0.4,13.6,2.2c0.8-2.7,1.4-5,2.2-7.3s1.4-4.7,0.3-6.6
				C88.2,96.7,82.9,100.5,77.5,104.4z M40.8,20c-3.9-3.4-9.2-0.4-13.7-2.4C24,30.1,24,30.1,25,31.5L40.8,20z M26.8,106.9
				c4.8-2.2,10.2,0.9,14-2.5l-16-11.7C22.7,97.5,27.2,101.7,26.8,106.9z"/>
		</g>
	</g>
	<rect y="-0.8" class="st1" width="118.4" height="126.6"/>
</g>
</svg>
