<?xml version="1.0" encoding="utf-8"?>
<!-- Generator: Adobe Illustrator 25.2.0, SVG Export Plug-In . SVG Version: 6.00 Build 0)  -->
<svg version="1.1" id="Layer_1" xmlns="http://www.w3.org/2000/svg" xmlns:xlink="http://www.w3.org/1999/xlink" x="0px" y="0px"
	 viewBox="0 0 145 126.7" style="enable-background:new 0 0 145 126.7;" xml:space="preserve">
<style type="text/css">
	.st0{fill:#F89621;}
	.st1{fill:none;}
</style>
<g id="Layer_2_1_">
	<g id="Layer_5">
		<path class="st0" d="M30,38.2c-0.7-5.6,0.4-11.2,3.2-16.1c3.2-6.1,4.5-12.4,2.8-19.3c-0.2-0.8,0.3-2.5,0.9-2.7c1-0.3,2.2,0,3,0.7
			c4.9,4.8,10.8,7.1,17.5,7.5C63,8.7,68.4,9.9,73,14c4.8-4.1,10.4-5.1,16.3-5.4c6.3-0.2,12.4-2.7,17-7c0.7-0.7,2.1-0.6,3.2-0.9
			c0.2,1,0.9,2.2,0.7,3.1c-1.5,5.8-0.9,12,1.7,17.4c2.5,5.4,4.8,10.8,3.7,17c0.1,0.6,0.4,1,0.9,1.3c5.4,2.2,8.5,6.7,11.9,11.1
			c2.5,3.1,5.3,6,8.5,8.5c1.7,1.4,4.1,1.8,6.1,2.9c0.8,0.4,2,1.3,2,2c-0.2,1-0.9,1.8-1.8,2.2c-7.1,1.8-12.1,6.3-16,12.2
			c-2.8,4.2-6.2,7.7-11,9.7c-0.6,0.3-1,1-1,1.6c0.4,4.8-0.6,9.5-2.8,13.7c-0.4,0.9-0.8,1.8-1.3,2.7c-2.8,5.4-3.5,11.5-2.2,17.4
			c0.2,1-0.5,2.1-0.8,3.2c-1.1-0.3-2.5-0.3-3.2-1c-5-5-11.2-7-18-7.4c-5.1-0.3-10-1.5-14.1-4.8c-0.5-0.3-1-0.4-1.6-0.2
			c-5,4-11.1,4.5-17.1,5c-5.7,0.4-11.1,2.7-15.3,6.6c-0.8,0.7-2.2,0.8-3.3,1.2c-0.3-1.2-1-2.4-0.7-3.4c1.4-5.6,0.9-11.5-1.6-16.8
			c-0.8-1.7-1.5-3.3-2.2-5c-1.7-3.7-2.3-7.8-1.9-11.8c0-0.8-0.4-1.6-1.1-2c-3.9-1.8-7.2-4.7-9.6-8.2c-1.3-1.8-2.6-3.6-3.9-5.4
			c-2.8-3.7-6.6-6.5-11-8c-0.8-0.3-1.6-0.6-2.3-1c-1.9-1.1-1.9-2.6-0.1-3.7C1.8,60.4,2.4,60.2,3,60c5.4-1.6,10.1-5,13.2-9.7
			c0.4-0.5,0.7-1,1.1-1.5C20.4,44.1,24.4,40.3,30,38.2z M72,107.3c25.2,0.2,45.2-19.9,44.4-46c-0.7-22.5-18.9-41.7-43.6-42
			c-24.3-0.2-44.2,19.3-44.4,43.6C28.2,87.2,47.7,107.1,72,107.3z M66,111.8l-0.1-0.7c-6.3-0.9-12.4-3-17.9-6.2
			c-5.5-3.3-10.4-7.6-14.4-12.6c0.7,9.1,7.8,16.4,6,26.6c6.3-4.6,13-4.7,19.6-5.5C61.4,113,63.7,112.5,66,111.8L66,111.8z
			 M111.5,34.9c-0.1-5.4-2.7-9.3-4.1-13.5s-2.1-8.6-3.1-12.9c-5,3.6-11.4,4-17.7,4.6c-2.6,0.4-5.1,0.9-7.6,1.6l0.1,0.8
			c6.3,0.9,12.3,3.1,17.7,6.2C102.6,25.1,107.5,29.6,111.5,34.9L111.5,34.9z M66.8,15.1c-8.2-3.9-18.1-1.4-25.7-7.8
			c-0.3,8-0.8,9.5-3.9,16.5c-1.1,2.4-1.9,4.8-2.7,7.3c-0.2,0.8-0.3,1.6-0.3,2.5c4.2-4.8,9.2-9,14.8-12.2
			C54.5,18.2,60.5,16.1,66.8,15.1z M117.7,44.7l-0.6,0.3c4.7,12.1,4.7,25.5-0.2,37.5c7.6-5.2,10.4-15.1,20-18.6
			c-7.2-3.2-10.8-9.1-14.8-14.6C120.8,47.7,119.3,46.2,117.7,44.7z M8.1,62.6c6.6,3,10.1,8.2,13.8,13.4c1.6,2.1,3.4,4,5.2,5.9
			l0.7-0.3c-4.9-12.5-4.7-25,0-37.6c-2,1.4-3.8,3.1-5.3,5C18.7,54.3,15,59.6,8.1,62.6z M78,111.2v0.6c2.1,0.7,4.3,1.3,6.5,1.7
			c6.6,0.8,13.2,1.3,19,5.2c0.1,0,0.3-0.1,0.2,0c0.4-2.9,0.5-5.8,1.3-8.4c1-3.4,2.7-6.6,4-10c0.9-2.3,1.5-4.8,2.2-7.2l-0.7-0.3
			C102.6,103.1,90.9,109.7,78,111.2z"/>
		<path class="st0" d="M72.8,26.7c19,0.2,36,14.4,36.2,36.9c0.2,20.3-16.6,36.5-36.8,36.4C52,99.5,35.9,82.8,36.4,62.5
			C36.8,42.7,53,26.8,72.8,26.7z M96.1,55.9c0.6-12.9-8.5-24-21.9-24.9c-12.8-1-24,8.5-25.1,21.3c0,0,0,0.1,0,0.1
			C47.8,66,58.3,77.1,70.7,78.1C82.4,79.1,95.3,70.2,96.1,55.9z M98.8,44.5c3.3,13,1.2,24.2-9.7,32.3c-9.2,6.9-19.6,7.8-29.6,2.2
			c-14-7.9-17.1-20.3-12.8-35.3c-10.8,14.3-8,34.6,6.2,45.4c12.6,9.6,30.3,8.6,41.8-2.3C108.4,73.7,106.4,54.4,98.8,44.5z"/>
	</g>
</g>
<g>
	<rect y="0" class="st1" width="145" height="126.6"/>
</g>
</svg>
