<?xml version="1.0" encoding="utf-8"?>
<!-- Generator: Adobe Illustrator 25.2.0, SVG Export Plug-In . SVG Version: 6.00 Build 0)  -->
<svg version="1.1" id="Layer_1" xmlns="http://www.w3.org/2000/svg" xmlns:xlink="http://www.w3.org/1999/xlink" x="0px" y="0px"
	 viewBox="0 0 113 113.1" style="enable-background:new 0 0 113 113.1;" xml:space="preserve">
<style type="text/css">
	.st0{fill:#F89621;}
	.st1{fill:none;}
</style>
<g>
	<g id="Layer_2_1_">
		<g id="Layer_5">
			<path class="st0" d="M106.5,56.6c4.6,5.6,7.3,11.7,6.3,19c-0.5,3.1-1.2,6.1-2.1,9.1c-1.4,5.3-3.1,10.6-2,16.2
				c0.5,2.3,1.4,4.5,2,6.8c0.2,0.9,0.3,2.3-0.2,2.9c-0.9,0.5-1.9,0.6-2.8,0.2c-6.1-2.7-12.9-3-19.3-1c-3.1,0.9-6.2,1.7-9.3,2.5
				c-6.9,1.9-14.3,0.5-20-3.8l-2.5-1.8c-0.7,0.5-1.5,1-2.2,1.6c-5.8,4.5-13.3,6-20.4,4c-4.4-1.1-8.7-2.4-13.1-3.3
				c-5.1-1-10.3-0.4-15,1.7c-1,0.4-2.7,0.5-3.2-0.1s-0.5-2.3-0.1-3.2c2.7-6.1,2.7-12.3,1-18.6c-0.9-3.3-1.9-6.6-2.7-10
				c-1.8-6.9-0.3-14.3,4.1-20c0.5-0.7,1-1.4,1.5-2c0-0.1,0-0.2,0,0c-1.6-2.6-3.2-5-4.5-7.6c-2.5-5.3-2.2-10.8-0.8-16.4
				c0.9-3.3,1.9-6.6,2.7-10c1.5-5.7,1-11.6-1.3-17C2.1,4.7,2.1,3.5,2.7,2.5c0.4-0.5,2.1-0.4,3,0C12,5.2,18.4,5.2,25,3.3L33.1,1
				c7.5-2.3,15.7-0.7,21.8,4.3c1.1,0.9,1.9,1,3.1,0c6.6-5.2,14.1-6.5,22.3-4.2c3.5,1,7,2,10.6,2.8c5.5,1.3,11.2,0.8,16.4-1.5
				c1-0.4,2.2-0.4,3.2,0.2c0.5,0.4,0.4,2.2,0,3.1c-2.5,5.7-2.9,12-1.2,18c0.9,3.4,1.9,6.8,2.8,10.2c2,7.2,0.5,14.9-4.1,20.8
				C107.6,55.2,107.1,55.8,106.5,56.6z M27.7,27.6v57.8h57.6V27.6H27.7z M104.4,51.5l0.9,0.2c1.2-2.6,2.2-5.3,3-8
				c1.3-5.2-0.5-10.1-2-15s-2.6-9.9-2.1-15.1c0.2-1.8,0.5-3.6,0.9-5.7C97.7,10,90.8,8.6,83.9,6.6c-2.7-0.8-5.4-1.5-8.2-2
				c-5.2-0.8-9.9,0.5-14.6,4c11.7,1.4,21.4,5.9,29.4,13.9C98.4,30.2,103.3,40.5,104.4,51.5L104.4,51.5z M104.7,61.3
				C100.3,86,86,100.4,61.5,104.8c0.2,0.2,0.3,0.4,0.5,0.6c0.4,0.3,0.9,0.6,1.4,0.8c5.7,3.3,11.7,3,17.7,1.2
				c7.8-2.3,15.5-4.7,24.1-2c-1.6-5.7-1.5-11.8,0.2-17.5c0.9-3.3,1.9-6.6,2.7-10C109.5,72.1,108.3,66.1,104.7,61.3L104.7,61.3z
				 M8.6,52c1.4-11.8,6-21.5,14-29.6s17.7-12.5,29-14.2c-2.3-1.4-4.8-2.5-7.4-3.3c-4.9-1.4-9.7,0-14.4,1.5c-7,2.2-14,3.6-21.4,1.7
				c0-0.1-0.2,0.1-0.5,0.2c2,6.8,0.9,13.4-1.1,20c-0.8,2.6-1.5,5.3-2.1,8C3.6,41.8,5,47.6,8.6,52z M51.7,104.8
				C27,100.4,12.7,86,8.4,61.6c-0.2,0.1-0.3,0.1-0.4,0.2c-0.2,0.2-0.4,0.5-0.5,0.8C3.9,68.3,4,74.4,5.6,80.7C7,85.3,8,90,8.8,94.7
				c0.4,3.4-0.2,6.9-0.4,10.5c6.6-2,13.1-0.9,19.7,1c2.6,0.8,5.3,1.6,8,2.1C41.5,109.5,47.2,108.2,51.7,104.8L51.7,104.8z M84.6,90
				H28.2C44.8,104.9,71.1,103,84.6,90z M23.2,28.6c-8.6,9.6-12.3,22.7-10,35.4c1.3,7.9,4.7,15.2,10,21.2V28.6z M84.9,23.2
				c-17.8-15.4-43.3-12.6-56.5,0H84.9z M89.9,28.5v56.2C104,69.5,103.8,43.3,89.9,28.5L89.9,28.5z"/>
			<path class="st0" d="M56.5,38.8c6,0,12.1,0,18.1,0c2.9,0,3.8,1.5,2.3,3.9c-6.1,10-12.2,20-18.3,29.9c-1.3,2.2-3,2.2-4.4,0
				c-6.1-10-12.2-20-18.3-30c-1.4-2.3-0.5-3.9,2.2-3.9C44.3,38.8,50.4,38.8,56.5,38.8z M56.5,68.1l15.2-24.9H41.3L56.5,68.1z"/>
		</g>
	</g>
	<rect class="st1" width="113" height="113"/>
</g>
</svg>
