<?xml version="1.0" encoding="utf-8"?>
<!-- Generator: Adobe Illustrator 25.2.0, SVG Export Plug-In . SVG Version: 6.00 Build 0)  -->
<svg version="1.1" id="Layer_1"
	xmlns="http://www.w3.org/2000/svg"
	xmlns:xlink="http://www.w3.org/1999/xlink" x="0px" y="0px" viewBox="0 0 247.4 497.4" style="enable-background:new 0 0 247.4 497.4;" xml:space="preserve">
	<style type="text/css">
	.st0{fill:#731745;stroke:#964774;stroke-width:3;stroke-miterlimit:10;}
	</style>
	<g id="Layer_2_1_">
		<g id="BG">
			<path class="st0" d="M2.3,59.3c-87.1,71.5,0,120.9,0,120.9S89.4,130.8,2.3,59.3z"/>
			<path class="st0" d="M2,442.1c87.1-71.5,0-120.9,0-120.9S-85.1,370.6,2,442.1z"/>
			<path class="st0" d="M137.4,386.2c11-112.1-85.5-85.5-85.5-85.5S25.3,397.2,137.4,386.2z"/>
			<path class="st0" d="M193.6,250.9c-71.5-87.1-120.9,0-120.9,0S122.1,337.9,193.6,250.9z"/>
			<path class="st0" d="M137.6,115.5C25.5,104.4,52.1,201,52.1,201S148.7,227.6,137.6,115.5z"/>
			<path class="st0" d="M3.2,88.4c-61.1,71.5,0,120.9,0,120.9S64.3,159.9,3.2,88.4z"/>
			<path class="st0" d="M1.1,413c61.1-71.5,0-120.9,0-120.9S-60,341.5,1.1,413z"/>
			<path class="st0" d="M116.2,366.2c-7.4-93.8-85.5-85.5-85.5-85.5S22.4,358.9,116.2,366.2z"/>
			<path class="st0" d="M164.5,251.8c-71.5-61.1-120.9,0-120.9,0S93,312.9,164.5,251.8z"/>
			<path class="st0" d="M117.7,136.7c-93.8,7.4-85.5,85.5-85.5,85.5S110.3,230.5,117.7,136.7z"/>
			<path class="st0" d="M64.3,402.5c34.2-87.7-39.8-114.2-39.8-114.2S-17,355.1,64.3,402.5z"/>
			<path class="st0" d="M156.1,312.9c-37.8-86.1-108.9-52.6-108.9-52.6S65.2,336.9,156.1,312.9z"/>
			<path class="st0" d="M157.7,184.6c-87.6-34.2-114.2,39.8-114.2,39.8S110.3,265.9,157.7,184.6z"/>
			<path class="st0" d="M68.1,92.8C-18,130.6,15.6,201.7,15.6,201.7S92.1,183.8,68.1,92.8z"/>
			<path class="st0" d="M-41.2,137.3c-23.6,72.4,37.4,90.4,37.4,90.4S26.6,171.9-41.2,137.3z"/>
			<path class="st0" d="M45.6,364.1c23.6-72.4-37.4-90.5-37.4-90.5S-22.2,329.5,45.6,364.1z"/>
			<path class="st0" d="M113,300.2c-34.5-67.9-90.4-37.5-90.4-37.5S40.6,323.7,113,300.2z"/>
			<path class="st0" d="M115.6,207.3c-72.4-23.6-90.5,37.4-90.5,37.4S80.9,275.1,115.6,207.3z"/>
			<path class="st0" d="M51.7,139.9c-67.9,34.5-37.5,90.4-37.5,90.4S75.1,212.3,51.7,139.9z"/>
			<path class="st0" d="M-70.4,176.3c5.4,80.7,72.6,74.4,72.6,74.4S10.1,183.6-70.4,176.3z"/>
			<path class="st0" d="M-72.2,323.3C8.5,318,2.2,250.7,2.2,250.7S-64.9,242.8-72.2,323.3z"/>
			<path class="st0" d="M74.8,325.1c-5.3-80.7-72.6-74.4-72.6-74.4S-5.7,317.8,74.8,325.1z"/>
			<path class="st0" d="M76.5,178.1c-80.7,5.4-74.4,72.6-74.4,72.6S69.3,258.6,76.5,178.1z"/>
			<circle class="st0" cx="82.3" cy="65.6" r="7.8"/>
			<circle class="st0" cx="76.4" cy="438.3" r="7.8"/>
			<circle class="st0" cx="187.3" cy="330.9" r="7.8"/>
			<circle class="st0" cx="189.8" cy="176.5" r="7.8"/>
			<circle class="st0" cx="49.5" cy="29.4" r="2.6"/>
			<circle class="st0" cx="43.1" cy="473.3" r="2.6"/>
			<circle class="st0" cx="125.2" cy="440.6" r="2.6"/>
			<circle class="st0" cx="188.5" cy="379.1" r="2.6"/>
			<circle class="st0" cx="223.5" cy="298" r="2.6"/>
			<circle class="st0" cx="224.7" cy="209.8" r="2.6"/>
			<circle class="st0" cx="192.1" cy="127.7" r="2.6"/>
			<circle class="st0" cx="130.6" cy="64.4" r="2.6"/>
			<circle class="st0" cx="1.2" cy="33.1" r="5.1"/>
			<circle class="st0" cx="3.2" cy="468.3" r="5.1"/>
			<circle class="st0" cx="156.8" cy="403.9" r="5.1"/>
			<circle class="st0" cx="219.8" cy="249.7" r="5.1"/>
			<circle class="st0" cx="155.4" cy="96.1" r="5.1"/>
			<circle class="st0" cx="49.5" cy="29.4" r="2.6"/>
			<circle class="st0" cx="43.1" cy="473.3" r="2.6"/>
			<circle class="st0" cx="125.2" cy="440.6" r="2.6"/>
			<circle class="st0" cx="188.5" cy="379.1" r="2.6"/>
			<circle class="st0" cx="223.5" cy="298" r="2.6"/>
			<circle class="st0" cx="224.7" cy="209.8" r="2.6"/>
			<circle class="st0" cx="192.1" cy="127.7" r="2.6"/>
			<circle class="st0" cx="130.6" cy="64.4" r="2.6"/>
			<circle class="st0" cx="-2.7" cy="493.3" r="2.6"/>
			<circle class="st0" cx="90.6" cy="476.7" r="2.6"/>
			<circle class="st0" cx="170.3" cy="425.7" r="2.6"/>
			<circle class="st0" cx="224.5" cy="348" r="2.6"/>
			<circle class="st0" cx="244.8" cy="255.5" r="2.6"/>
			<circle class="st0" cx="228.2" cy="162.3" r="2.6"/>
			<circle class="st0" cx="177.2" cy="82.6" r="2.6"/>
			<circle class="st0" cx="99.5" cy="28.4" r="2.6"/>
			<circle class="st0" cx="7" cy="8.1" r="2.6"/>
			<path class="st0" d="M2.2,152.8c-49.5,57.9,0,97.9,0,97.9S51.6,210.7,2.2,152.8z"/>
			<path class="st0" d="M-95.7,250.7c57.9,49.4,97.9,0,97.9,0S-37.8,201.2-95.7,250.7z"/>
			<path class="st0" d="M2.2,348.6c49.4-57.9,0-97.9,0-97.9S-47.3,290.7,2.2,348.6z"/>
			<path class="st0" d="M100,250.7c-57.9-49.5-97.9,0-97.9,0S42.2,300.1,100,250.7z"/>
			<circle class="st0" cx="48.4" cy="74.6" r="7"/>
			<circle class="st0" cx="94" cy="407.9" r="7"/>
			<circle class="st0" cx="178.3" cy="296.9" r="7"/>
			<circle class="st0" cx="159.4" cy="158.9" r="7"/>
			<circle class="st0" cx="96.5" cy="95" r="7"/>
			<circle class="st0" cx="45.6" cy="427.5" r="7"/>
			<circle class="st0" cx="157.9" cy="345" r="7"/>
			<circle class="st0" cx="179" cy="207.3" r="7"/>
		</g>
	</g>
</svg>
