<?xml version="1.0" encoding="utf-8"?>
<!-- Generator: Adobe Illustrator 25.2.0, SVG Export Plug-In . SVG Version: 6.00 Build 0)  -->
<svg version="1.1" id="Layer_1"
	xmlns="http://www.w3.org/2000/svg"
	xmlns:xlink="http://www.w3.org/1999/xlink" x="0px" y="0px" viewBox="0 0 247.4 497.4" style="enable-background:new 0 0 247.4 497.4;" xml:space="preserve">
	<style type="text/css">
	.st0{fill:#731745;stroke:#964774;stroke-width:3;stroke-miterlimit:10;}
	</style>
	<g id="Layer_2_1_">
		<g id="BG">
			<path class="st0" d="M245.4,59.3c-87.1,71.5,0,120.9,0,120.9S332.4,130.8,245.4,59.3z"/>
			<path class="st0" d="M109.9,115.2c-11,112.1,85.5,85.5,85.5,85.5S222.1,104.2,109.9,115.2z"/>
			<path class="st0" d="M53.8,250.5c71.5,87.1,120.9,0,120.9,0S125.3,163.4,53.8,250.5z"/>
			<path class="st0" d="M109.7,385.9c112.1,11,85.5-85.5,85.5-85.5S98.7,273.8,109.7,385.9z"/>
			<path class="st0" d="M245,442.1c87.1-71.5,0-120.9,0-120.9S157.9,370.6,245,442.1z"/>
			<path class="st0" d="M246.2,88.4c-61.1,71.5,0,120.9,0,120.9S307.3,159.9,246.2,88.4z"/>
			<path class="st0" d="M131.2,135.2c7.4,93.8,85.5,85.5,85.5,85.5S225,142.5,131.2,135.2z"/>
			<path class="st0" d="M82.9,249.6c71.5,61.1,120.9,0,120.9,0S154.4,188.5,82.9,249.6z"/>
			<path class="st0" d="M129.7,364.7c93.8-7.4,85.5-85.5,85.5-85.5S137,270.9,129.7,364.7z"/>
			<path class="st0" d="M244.1,413c61.1-71.5,0-120.9,0-120.9S183,341.5,244.1,413z"/>
			<path class="st0" d="M182.9,91.2c-34.2,87.7,39.8,114.2,39.8,114.2S264.1,138.6,182.9,91.2z"/>
			<path class="st0" d="M91,180.8c37.8,86.1,108.9,52.6,108.9,52.6S182,156.8,91,180.8z"/>
			<path class="st0" d="M89.4,309.1c87.7,34.2,114.2-39.8,114.2-39.8S136.8,227.8,89.4,309.1z"/>
			<path class="st0" d="M179,400.9c86.1-37.8,52.6-108.9,52.6-108.9S155.1,309.9,179,400.9z"/>
			<path class="st0" d="M201.8,137.3c-23.6,72.4,37.4,90.4,37.4,90.4S269.6,171.9,201.8,137.3z"/>
			<path class="st0" d="M134.3,201.2c34.5,67.9,90.4,37.5,90.4,37.5S206.8,177.7,134.3,201.2z"/>
			<path class="st0" d="M131.8,294.1c72.4,23.6,90.4-37.4,90.4-37.4S166.4,226.3,131.8,294.1z"/>
			<path class="st0" d="M195.7,361.5c67.9-34.5,37.5-90.4,37.5-90.4S172.2,289.1,195.7,361.5z"/>
			<path class="st0" d="M288.6,364.1c23.6-72.4-37.4-90.5-37.4-90.5S220.8,329.5,288.6,364.1z"/>
			<path class="st0" d="M172.6,176.3c5.4,80.7,72.6,74.4,72.6,74.4S253.1,183.6,172.6,176.3z"/>
			<path class="st0" d="M170.8,323.3c80.7-5.3,74.4-72.6,74.4-72.6S178.1,242.8,170.8,323.3z"/>
			<path class="st0" d="M317.8,325.1c-5.3-80.7-72.6-74.4-72.6-74.4S237.3,317.8,317.8,325.1z"/>
			<path class="st0" d="M319.5,178.1c-80.7,5.4-74.4,72.6-74.4,72.6S312.3,258.6,319.5,178.1z"/>
			<circle class="st0" cx="171" cy="63.1" r="7.8"/>
			<circle class="st0" cx="60" cy="170.5" r="7.8"/>
			<circle class="st0" cx="57.6" cy="324.9" r="7.8"/>
			<circle class="st0" cx="165" cy="435.9" r="7.8"/>
			<circle class="st0" cx="204.2" cy="28.1" r="2.6"/>
			<circle class="st0" cx="122.2" cy="60.8" r="2.6"/>
			<circle class="st0" cx="58.9" cy="122.3" r="2.6"/>
			<circle class="st0" cx="23.9" cy="203.4" r="2.6"/>
			<circle class="st0" cx="22.6" cy="291.6" r="2.6"/>
			<circle class="st0" cx="55.2" cy="373.7" r="2.6"/>
			<circle class="st0" cx="116.8" cy="437" r="2.6"/>
			<circle class="st0" cx="197.8" cy="472" r="2.6"/>
			<circle class="st0" cx="244.2" cy="33.1" r="5.1"/>
			<circle class="st0" cx="90.6" cy="97.5" r="5.1"/>
			<circle class="st0" cx="27.6" cy="251.7" r="5.1"/>
			<circle class="st0" cx="92" cy="405.3" r="5.1"/>
			<circle class="st0" cx="246.2" cy="468.3" r="5.1"/>
			<circle class="st0" cx="204.2" cy="28.1" r="2.6"/>
			<circle class="st0" cx="122.2" cy="60.8" r="2.6"/>
			<circle class="st0" cx="58.9" cy="122.3" r="2.6"/>
			<circle class="st0" cx="23.9" cy="203.4" r="2.6"/>
			<circle class="st0" cx="22.6" cy="291.6" r="2.6"/>
			<circle class="st0" cx="55.2" cy="373.7" r="2.6"/>
			<circle class="st0" cx="116.8" cy="437" r="2.6"/>
			<circle class="st0" cx="197.8" cy="472" r="2.6"/>
			<circle class="st0" cx="156.8" cy="24.7" r="2.6"/>
			<circle class="st0" cx="77" cy="75.7" r="2.6"/>
			<circle class="st0" cx="22.9" cy="153.4" r="2.6"/>
			<circle class="st0" cx="2.6" cy="245.9" r="2.6"/>
			<circle class="st0" cx="19.2" cy="339.1" r="2.6"/>
			<circle class="st0" cx="70.2" cy="418.8" r="2.6"/>
			<circle class="st0" cx="147.9" cy="473" r="2.6"/>
			<circle class="st0" cx="240.4" cy="493.3" r="2.6"/>
			<circle class="st0" cx="250" cy="8.1" r="2.6"/>
			<path class="st0" d="M245.2,152.8c-49.5,57.9,0,97.9,0,97.9S294.6,210.7,245.2,152.8z"/>
			<path class="st0" d="M147.3,250.7c57.9,49.4,97.9,0,97.9,0S205.2,201.2,147.3,250.7z"/>
			<path class="st0" d="M245.2,348.6c49.4-57.9,0-97.9,0-97.9S195.7,290.7,245.2,348.6z"/>
			<path class="st0" d="M343,250.7c-57.9-49.5-97.9,0-97.9,0S285.2,300.1,343,250.7z"/>
			<circle class="st0" cx="153.4" cy="93.5" r="7"/>
			<circle class="st0" cx="69.1" cy="204.4" r="7"/>
			<circle class="st0" cx="88" cy="342.5" r="7"/>
			<circle class="st0" cx="198.9" cy="426.8" r="7"/>
			<circle class="st0" cx="201.8" cy="73.9" r="7"/>
			<circle class="st0" cx="89.5" cy="156.4" r="7"/>

			<ellipse transform="matrix(0.9985 -5.530035e-02 5.530035e-02 0.9985 -16.1603 4.2321)" class="st0" cx="68.4" cy="294.1" rx="7" ry="7"/>
			<circle class="st0" cx="150.9" cy="406.4" r="7"/>
		</g>
	</g>
</svg>
