<?xml version="1.0" encoding="utf-8"?>
<!-- Generator: Adobe Illustrator 25.2.0, SVG Export Plug-In . SVG Version: 6.00 Build 0)  -->
<svg version="1.1" id="Layer_1" xmlns="http://www.w3.org/2000/svg" xmlns:xlink="http://www.w3.org/1999/xlink" x="0px" y="0px"
	 viewBox="0 0 32 32" style="enable-background:new 0 0 32 32;" xml:space="preserve">
<style type="text/css">
	.st0{fill:#F89621;}
</style>
<g>
	<path class="st0" d="M0,28.6c0-0.4,0-0.9,0-1.3c0.3-1.1,1.1-2,1.9-2.8c2.7-2.7,5.4-5.4,8.1-8.1c0.4-0.4,0.4-0.6,0-1
		c-2.7-2.7-5.4-5.4-8.1-8.1C1.1,6.6,0.3,5.8,0,4.6c0-0.4,0-0.9,0-1.3C0.4,1.5,1.5,0.4,3.4,0c0.4,0,0.9,0,1.3,0
		c1.1,0.3,2,1.1,2.8,1.9c2.7,2.7,5.4,5.4,8.1,8.1c0.4,0.4,0.6,0.4,1,0c2.7-2.7,5.4-5.4,8.1-8.1c0.8-0.8,1.7-1.6,2.8-1.9
		c0.4,0,0.9,0,1.3,0c1.8,0.4,2.8,1.5,3.4,3.2c0,0.5,0,1.1,0,1.6C31.5,6.1,30.5,7,29.6,8c-2.5,2.5-5,5-7.5,7.5c-0.4,0.4-0.4,0.6,0,1
		c2.7,2.6,5.3,5.3,8,8c0.9,0.8,1.7,1.7,2,2.9c0,0.5,0,1.1,0,1.6c-0.6,1.5-1.6,2.6-3.2,3c-0.5,0-1.1,0-1.6,0
		c-1.3-0.5-2.2-1.4-3.1-2.4c-2.5-2.5-5.1-5-7.6-7.6c-0.4-0.4-0.6-0.4-1,0c-2.6,2.7-5.3,5.3-8,8c-0.8,0.9-1.7,1.7-2.9,2
		c-0.5,0-1.1,0-1.6,0C1.5,31.4,0.3,30.4,0,28.6z"/>
</g>
</svg>
