<svg version="1.1" id="Layer_1" xmlns="http://www.w3.org/2000/svg" xmlns:xlink="http://www.w3.org/1999/xlink" x="0px" y="0px"
	 viewBox="0 0 730 1294.2" style="enable-background:new 0 0 730 1294.2;" xml:space="preserve">
<style type="text/css">
	.st0{fill:#731745;}
	.st1{fill:#731745;stroke:#964774;stroke-width:6;stroke-miterlimit:10;}
	.st2{fill:#731745;stroke:#964774;stroke-width:6;stroke-miterlimit:10;}
</style>
<g>
	<path class="st0" d="M245.6,1303.1h236c0,0,20.7-194.3,34-211.8c13.3-17.4,14.7-210.2,0-234.9c-14.7-24.7-53.3-76.7-53.3-76.7
		l-5.3-232.7l-9.3-120.6l-98.7-38l-88,46l-2,214.7l8.7,92.7c0,0-44,134.7-46,138s-16.7,79.3-16.7,79.3S234.2,1272.5,245.6,1303.1z"
		/>
	<g id="Popup_1_">
		<path class="st0" d="M326.9,261.1c-1.3,2.7-3.7,63-11.7,82.3c-8,19.3-24.8,26.3,7.7,30.3s92.9-9.7,92.9-9.7l7.8-21.2
			c0,0-13.2-7.8-15.5-27.5c-2.3-19.7-5-56-5-56L326.9,261.1z"/>
		<path class="st1" d="M322.9,280.1c-97.3,11.3-91.8-78.9-74.5-117.6s20-59.3,26-89.3S295.1,12.6,345,5.9s64,26.7,64,26.7
			s22-12,38,8s12.7,77.3,22,95.3s60.3,146.5-63.7,145.2"/>
		<path class="st1" d="M322.2,268.2c0,0,4.8,56.3-9.9,69.7s-49.3,32-83.3,32s-78,16-81.3,88s-6,212.6-6,212.6s-27.3,33.3-37.3,106.6
			C97.9,823.7,89,870,77.8,915.7c0,0-34.7,18-40,36s-38,62-34.7,68.7s14.7,8,24-10.7C36.5,991,46.5,987,46.5,987s-6,56.7-6.7,78
			s9.3,22.7,12,21.3c0,0,1.3,12,9.5,10.8c6.8-1,8.8-8.3,8.8-8.3s13,5.5,16.3-6.5c0,0,7.3,5.3,14-8.7c5.5-11.6,10-21.8,12-61.1
			c2-39.3,4.7-92.2,4.7-92.2c64-89.3,82.7-199.3,86.7-237.3s16.7-109.3,16.7-109.3s8.6,20.1,21,23.2c0,0,18.6,141.9,12.4,162
			c0,0-82.2,112.4-63.6,247.3s56.6,288.5,56.6,288.5"/>
		<path class="st1" d="M51.6,1009c0,0,36.9,11.3,52.9,3.3"/>
		<path class="st1" d="M51.8,1086.3c0,0,10.4-53.1,10.8-72.9"/>
		<path class="st1" d="M76.7,1014.3c0,0-2.4,54-8.2,76.1"/>
		<path class="st1" d="M92.1,1016c0,0,1.4,47.5-5.7,66.3"/>
		<path class="st2" d="M338.8,1294.8c9.9-59.5,19.3-289.5,19.3-289.5h13.6c0,0,7.4,249.3,14.9,290.3"/>
		<path class="st1" d="M405.6,264.8c0,0-2.9,59.7,11.8,73.1s49.3,32,83.3,32s78,16,81.3,88s6,212.6,6,212.6s27.3,33.3,37.3,106.6
			c6.5,46.6,15.4,92.9,26.7,138.6c0,0,34.7,18,40,36s38,62,34.7,68.7s-14.7,8-24-10.7c-9.3-18.7-19.3-22.7-19.3-22.7s6,56.7,6.7,78
			s-9.3,22.7-12,21.3c0,0-0.2,10.2-8.4,10.8c-7.4,0.6-10.4-11.4-10.4-11.4s-12.5,8.7-15.8-3.3c0,0-7.3,5.3-14-8.7
			c-5.5-11.6-10-21.8-12-61.1c-2-39.3-4.7-92.2-4.7-92.2c-64-89.3-82.6-199.3-86.6-237.3s-16.7-109.3-16.7-109.3s-8.6,20.1-21,23.2
			c0,0-18.6,141.9-12.4,162c0,0,82.2,112.4,63.6,247.3s-56.9,288.5-56.9,288.5"/>
		<path class="st1" d="M678.2,1009c0,0-36.8,11.3-52.8,3.3"/>
		<path class="st1" d="M678,1086.3c0,0-10.4-53.1-10.8-72.9"/>
		<path class="st1" d="M653.1,1014.3c0,0-0.2,49,8.2,77.1"/>
		<path class="st1" d="M637.6,1016c0,0-1.4,47.5,5.7,66.3"/>
		<path class="st1" d="M284.4,132.6c0,0-5.4,152.1,84.1,156.9c0,0,75.2-6,75.2-152.7"/>
		<path class="st1" d="M459,160.6c0,0-0.7,50.7-22,48.7"/>
		<path class="st1" d="M270.4,183.2c0,0,0.7,28.7,23.3,28"/>
		<path class="st1" d="M365.7,75.2c0,0-30.6,37.3-58.6,45.3s-32,26.7-33.3,39.3"/>
		<path class="st1" d="M362.4,75.2c0,0,29.3,37.3,57.3,45.3s32,26.7,33.3,39.3"/>
		<path class="st1" d="M272.7,361.4c0,0,24.4,98.5,91.1,130.2c0,0,61.4-24.4,93.2-130.2"/>
		<path class="st1" d="M142.4,588c0,0,36-5.3,73.1,15.9"/>
		<path class="st1" d="M587.2,588c0,0-36-5.3-73.1,15.9"/>
		<path class="st1" d="M220.8,489.5c0,0-31.8,129.2,57.2,109.1"/>
		<path class="st1" d="M509.7,489.5c0,0,31.8,129.2-57.2,109.1"/>
		<path class="st1" d="M190.1,926.8c0,0,19.1-4.2,83.7,9.5c62.7,13.4,91.1,27.5,199.1-7.4c0,0,45.5-15.9,65.7-14.8"/>
	</g>
</g>
</svg>
