<svg xmlns="http://www.w3.org/2000/svg" viewBox="0 0 730.05 1294.19">
    <defs>
        <style>
        .cls-1{
            fill:none;
            stroke:#964774;
            stroke-miterlimit:10;
            stroke-width:6px;}
        </style>
    </defs>
    <g id="Layer_2" data-name="Layer 2">
        <g id="Popup">
            <path class="cls-1" d="M317.89,277.84c-97.3,11.33-86.68-78.64-69.35-117.3s20-59.32,26-89.31S295.2,10.58,345.18,3.91s64,26.66,64,26.66,22-12,38,8,12.66,77.32,22,95.31,65.66,146.51-58.31,145.18"/>
            <path class="cls-1" d="M319.11,262.76s8.08,59.74-6.59,73.07-49.32,32-83.31,32-78,16-81.31,88-6,212.61-6,212.61-27.32,33.32-37.32,106.64A1397.37,1397.37,0,0,1,77.92,913.68s-34.66,18-40,36-38,62-34.66,68.65,14.66,8,24-10.66S46.59,985,46.59,985s-6,56.66-6.66,78,9.33,22.67,12,21.33c0,0,1.32,12,9.47,10.8,6.76-1,8.84-8.33,8.84-8.33s13,5.53,16.35-6.47c0,0,7.33,5.34,14-8.66,5.51-11.58,10-21.82,12-61.14s4.7-92.15,4.7-92.15c64-89.31,82.65-199.29,86.65-237.28s16.66-109.3,16.66-109.3,8.62,20.09,21,23.19c0,0,18.61,141.86,12.41,162,0,0-82.17,112.4-63.57,247.29S247,1292.81,247,1292.81"/>
            <path class="cls-1" d="M51.73,1007s36.85,11.35,52.85,3.35"/>
            <path class="cls-1" d="M51.92,1084.3s10.39-53.09,10.83-72.92"/>
            <path class="cls-1" d="M76.85,1012.26s-2.45,54-8.18,76.07"/>
            <path class="cls-1" d="M92.27,1014s1.4,47.52-5.69,66.28"/>
            <path class="cls-1" d="M338.91,1292.81c9.92-59.48,19.29-289.47,19.29-289.47h13.65s7.43,249.32,14.88,290.3"/>
            <path class="cls-1" d="M410.94,262.76s-8.08,59.74,6.58,73.07,49.32,32,83.31,32,78,16,81.32,88,6,212.61,6,212.61,27.33,33.32,37.33,106.64a1397.37,1397.37,0,0,0,26.66,138.63s34.66,18,40,36,38,62,34.66,68.65-14.67,8-24-10.66S683.45,985,683.45,985s6,56.66,6.67,78-9.33,22.67-12,21.33c0,0-.21,10.16-8.42,10.8-7.43.57-10.41-11.45-10.41-11.45s-12.49,8.65-15.83-3.35c0,0-7.33,5.34-14-8.66-5.51-11.58-10-21.82-12-61.14s-4.71-92.15-4.71-92.15c-64-89.31-82.64-199.29-86.64-237.28s-16.66-109.3-16.66-109.3-8.62,20.09-21,23.19c0,0-18.6,141.86-12.4,162,0,0,82.17,112.4,63.57,247.29s-56.86,288.54-56.86,288.54"/>
            <path class="cls-1" d="M678.31,1007s-36.85,11.35-52.84,3.35"/>
            <path class="cls-1" d="M678.12,1084.3s-10.38-53.09-10.82-72.92"/>
            <path class="cls-1" d="M653.2,1012.26s-.16,49,8.17,77.11"/>
            <path class="cls-1" d="M637.78,1014s-1.41,47.52,5.68,66.28"/>
            <path class="cls-1" d="M284.53,130.55s-5.39,152.08,84.09,156.85c0,0,75.17-6,75.17-152.71"/>
            <path class="cls-1" d="M459.15,158.54s-.66,50.65-22,48.65"/>
            <path class="cls-1" d="M270.54,181.2s.66,28.66,23.32,28"/>
            <path class="cls-1" d="M365.84,73.23s-30.65,37.32-58.65,45.32-32,26.66-33.32,39.32"/>
            <path class="cls-1" d="M362.51,73.23s29.33,37.32,57.32,45.32,32,26.66,33.33,39.32"/>
            <path class="cls-1" d="M272.81,359.35s24.35,98.48,91.06,130.25c0,0,61.42-24.36,93.19-130.25"/>
            <path class="cls-1" d="M142.56,586s36-5.29,73.07,15.88"/>
            <path class="cls-1" d="M587.31,586s-36-5.29-73.07,15.88"/>
            <path class="cls-1" d="M220.92,487.48S189.15,616.67,278.1,596.55"/>
            <path class="cls-1" d="M509.79,487.48s31.76,129.19-57.19,109.07"/>
            <path class="cls-1" d="M190.21,924.82s19.06-4.24,83.66,9.53c62.69,13.36,91.06,27.53,199.07-7.42,0,0,45.54-15.88,65.66-14.82"/>
        </g>
    </g>
</svg>