<svg version="1.1" id="enlighted-human"
	xmlns="http://www.w3.org/2000/svg"
	xmlns:xlink="http://www.w3.org/1999/xlink" viewBox="0 0 730 1623.9" style="enable-background:new 0 0 730 1623.9;" xml:space="preserve">
	<style type="text/css">
	.enlighted-flower{opacity:0.3;}
	.petal{fill:none;stroke:#964774;stroke-width:3;stroke-miterlimit:10;}
	.petal{fill:none;stroke:#964774;stroke-width:3;stroke-miterlimit:10;}
	.petal{fill:none;stroke:#964774;stroke-width:3;stroke-miterlimit:10;}
	.human-inside{fill:#731745;}
	.human-outside{fill:#731745;stroke:#964774;stroke-width:6;stroke-miterlimit:10;}
	.chakra{fill:#F89621;}
	.overlay{fill:none;}
	</style>
	<g id="Layer_2_1_" class="enlighted-flower">
		<g id="BG">
			<path class="petal" d="M365.2,123.4c-116.4,95.6,0,161.6,0,161.6S481.6,219,365.2,123.4z"/>
			<path class="petal" d="M184.2,198.2c-14.7,149.9,114.3,114.3,114.3,114.3S334.1,183.5,184.2,198.2z"/>
			<path class="petal" d="M109.1,379c95.6,116.4,161.6,0,161.6,0S204.7,262.6,109.1,379z"/>
			<path class="petal" d="M183.9,560c149.9,14.7,114.3-114.3,114.3-114.3S169.2,410.1,183.9,560z"/>
			<path class="petal" d="M364.8,635.1c116.4-95.6,0-161.6,0-161.6S248.4,539.5,364.8,635.1z"/>
			<path class="petal" d="M545.8,560.3C560.5,410.4,431.5,446,431.5,446S395.9,575,545.8,560.3z"/>
			<path class="petal" d="M620.9,379.5c-95.6-116.4-161.6,0-161.6,0S525.3,495.9,620.9,379.5z"/>
			<path class="petal" d="M546.1,198.5c-149.9-14.7-114.3,114.3-114.3,114.3S560.8,348.4,546.1,198.5z"/>
			<path class="petal" d="M366.4,162.3c-81.7,95.6,0,161.6,0,161.6S448.1,257.9,366.4,162.3z"/>
			<path class="petal" d="M212.6,224.9c9.8,125.4,114.3,114.3,114.3,114.3S337.9,234.7,212.6,224.9z"/>
			<path class="petal" d="M148.1,377.8c95.6,81.7,161.6,0,161.6,0S243.6,296.2,148.1,377.8z"/>
			<path class="petal" d="M210.6,531.7c125.4-9.8,114.3-114.3,114.3-114.3S220.4,406.3,210.6,531.7z"/>
			<path class="petal" d="M363.6,596.2c81.7-95.6,0-161.6,0-161.6S281.9,500.6,363.6,596.2z"/>
			<path class="petal" d="M517.4,533.7c-9.8-125.4-114.3-114.3-114.3-114.3S392.1,523.8,517.4,533.7z"/>
			<path class="petal" d="M581.9,380.7c-95.6-81.7-161.6,0-161.6,0S486.3,462.4,581.9,380.7z"/>
			<path class="petal" d="M519.4,226.9C394,236.7,405.1,341.1,405.1,341.1S509.6,352.2,519.4,226.9z"/>
			<path class="petal" d="M281.7,166c-45.7,117.2,53.2,152.6,53.2,152.6S390.3,229.4,281.7,166z"/>
			<path class="petal" d="M158.9,285.8c50.6,115.1,145.6,70.3,145.6,70.3S280.5,253.8,158.9,285.8z"/>
			<path class="petal" d="M156.8,457.3C274,503,309.4,404.1,309.4,404.1S220.1,348.7,156.8,457.3z"/>
			<path class="petal" d="M276.5,580.1c115.1-50.6,70.3-145.6,70.3-145.6S244.5,458.4,276.5,580.1z"/>
			<path class="petal" d="M448,582.2c45.7-117.2-53.2-152.6-53.2-152.6S339.4,518.8,448,582.2z"/>
			<path class="petal" d="M570.8,462.4c-50.6-115.1-145.5-70.3-145.5-70.3S449.2,494.4,570.8,462.4z"/>
			<path class="petal" d="M572.9,290.9c-117.2-45.7-152.6,53.2-152.6,53.2S509.5,399.5,572.9,290.9z"/>
			<path class="petal" d="M453.2,168.2c-115.1,50.6-70.3,145.6-70.3,145.6S485.2,289.8,453.2,168.2z"/>
			<path class="petal" d="M307,227.7c-31.6,96.7,49.9,120.9,49.9,120.9S397.6,274,307,227.7z"/>
			<path class="petal" d="M216.8,313.1c46.1,90.7,120.8,50.2,120.8,50.2S313.6,281.7,216.8,313.1z"/>
			<path class="petal" d="M213.5,437.2c96.7,31.6,120.9-49.9,120.9-49.9S259.7,346.6,213.5,437.2z"/>
			<path class="petal" d="M298.8,527.4c90.7-46.1,50.2-120.8,50.2-120.8S267.5,430.6,298.8,527.4z"/>
			<path class="petal" d="M423,530.8c31.6-96.7-49.9-120.9-49.9-120.9S332.4,484.5,423,530.8z"/>
			<path class="petal" d="M513.2,445.4c-46.1-90.7-120.8-50.2-120.8-50.2S416.4,476.8,513.2,445.4z"/>
			<path class="petal" d="M516.5,321.3c-96.7-31.6-120.9,49.9-120.9,49.9S470.3,411.9,516.5,321.3z"/>
			<path class="petal" d="M431.1,231.1C340.4,277.2,381,351.9,381,351.9S462.5,327.9,431.1,231.1z"/>
			<path class="petal" d="M267.9,279.9c7.2,107.8,97.1,99.4,97.1,99.4S375.6,289.6,267.9,279.9z"/>
			<path class="petal" d="M265.6,476.3c107.8-7.1,99.4-97.1,99.4-97.1S275.3,368.7,265.6,476.3z"/>
			<path class="petal" d="M462.1,478.7C455,370.8,365,379.3,365,379.3S354.4,468.9,462.1,478.7z"/>
			<path class="petal" d="M464.4,282.2c-107.8,7.2-99.4,97.1-99.4,97.1S454.7,389.8,464.4,282.2z"/>
			<circle class="petal" cx="472.1" cy="131.8" r="10.4"/>
			<circle class="petal" cx="265.8" cy="128.5" r="10.4"/>
			<circle class="petal" cx="117.5" cy="272.1" r="10.4"/>
			<circle class="petal" cx="114.2" cy="478.5" r="10.4"/>
			<circle class="petal" cx="257.8" cy="626.7" r="10.4"/>
			<circle class="petal" cx="464.2" cy="630" r="10.4"/>
			<circle class="petal" cx="612.5" cy="486.4" r="10.4"/>
			<circle class="petal" cx="615.8" cy="280" r="10.4"/>
			<circle class="petal" cx="428.3" cy="83.5" r="3.4"/>
			<circle class="petal" cx="310.3" cy="81.8" r="3.4"/>
			<circle class="petal" cx="200.6" cy="125.4" r="3.4"/>
			<circle class="petal" cx="115.9" cy="207.6" r="3.4"/>
			<circle class="petal" cx="69.2" cy="316" r="3.4"/>
			<circle class="petal" cx="67.5" cy="434" r="3.4"/>
			<circle class="petal" cx="111.1" cy="543.7" r="3.4"/>
			<circle class="petal" cx="193.3" cy="628.3" r="3.4"/>
			<circle class="petal" cx="301.7" cy="675" r="3.4"/>
			<circle class="petal" cx="419.7" cy="676.8" r="3.4"/>
			<circle class="petal" cx="529.4" cy="633.2" r="3.4"/>
			<circle class="petal" cx="614" cy="550.9" r="3.4"/>
			<circle class="petal" cx="660.8" cy="442.5" r="3.4"/>
			<circle class="petal" cx="662.5" cy="324.5" r="3.4"/>
			<circle class="petal" cx="618.9" cy="214.9" r="3.4"/>
			<circle class="petal" cx="536.7" cy="130.2" r="3.4"/>
			<circle class="petal" cx="363.7" cy="88.4" r="6.8"/>
			<circle class="petal" cx="158.4" cy="174.5" r="6.8"/>
			<circle class="petal" cx="74.1" cy="380.6" r="6.8"/>
			<circle class="petal" cx="160.3" cy="585.9" r="6.8"/>
			<circle class="petal" cx="366.3" cy="670.1" r="6.8"/>
			<circle class="petal" cx="571.6" cy="584" r="6.8"/>
			<circle class="petal" cx="655.9" cy="377.9" r="6.8"/>
			<circle class="petal" cx="569.7" cy="172.6" r="6.8"/>
			<circle class="petal" cx="428.3" cy="83.5" r="3.4"/>
			<circle class="petal" cx="310.3" cy="81.8" r="3.4"/>
			<circle class="petal" cx="200.6" cy="125.4" r="3.4"/>
			<circle class="petal" cx="115.9" cy="207.6" r="3.4"/>
			<circle class="petal" cx="69.2" cy="316" r="3.4"/>
			<circle class="petal" cx="67.5" cy="434" r="3.4"/>
			<circle class="petal" cx="111.1" cy="543.7" r="3.4"/>
			<circle class="petal" cx="193.3" cy="628.3" r="3.4"/>
			<circle class="petal" cx="301.7" cy="675" r="3.4"/>
			<circle class="petal" cx="419.7" cy="676.8" r="3.4"/>
			<circle class="petal" cx="529.4" cy="633.2" r="3.4"/>
			<circle class="petal" cx="614" cy="550.9" r="3.4"/>
			<circle class="petal" cx="660.8" cy="442.5" r="3.4"/>
			<circle class="petal" cx="662.5" cy="324.5" r="3.4"/>
			<circle class="petal" cx="618.9" cy="214.9" r="3.4"/>
			<circle class="petal" cx="536.7" cy="130.2" r="3.4"/>
			<circle class="petal" cx="246.9" cy="77.1" r="3.4"/>
			<circle class="petal" cx="140.2" cy="145.4" r="3.4"/>
			<circle class="petal" cx="67.8" cy="249.2" r="3.4"/>
			<circle class="petal" cx="40.7" cy="372.8" r="3.4"/>
			<circle class="petal" cx="62.9" cy="497.4" r="3.4"/>

			<ellipse transform="matrix(3.327807e-02 -0.9994 0.9994 3.327807e-02 -476.9282 714.9274)" class="petal" cx="131.1" cy="604" rx="3.4" ry="3.4"/>
			<circle class="petal" cx="234.9" cy="676.4" r="3.4"/>
			<circle class="petal" cx="358.5" cy="703.6" r="3.4"/>
			<circle class="petal" cx="483.1" cy="681.4" r="3.4"/>
			<circle class="petal" cx="589.7" cy="613.2" r="3.4"/>
			<circle class="petal" cx="662.2" cy="509.3" r="3.4"/>
			<circle class="petal" cx="689.3" cy="385.7" r="3.4"/>
			<circle class="petal" cx="667.1" cy="261.1" r="3.4"/>
			<circle class="petal" cx="598.9" cy="154.5" r="3.4"/>
			<circle class="petal" cx="495.1" cy="82.1" r="3.4"/>
			<circle class="petal" cx="371.5" cy="54.9" r="3.4"/>
			<path class="petal" d="M365,248.5c-66.1,77.4,0,130.8,0,130.8S431.1,325.8,365,248.5z"/>
			<path class="petal" d="M234.2,379.3c77.4,66.1,130.8,0,130.8,0S311.5,313.2,234.2,379.3z"/>
			<path class="petal" d="M365,510.1c66.1-77.4,0-130.8,0-130.8S298.9,432.7,365,510.1z"/>
			<path class="petal" d="M495.8,379.3c-77.4-66.1-130.8,0-130.8,0S418.4,445.4,495.8,379.3z"/>
			<circle class="petal" cx="426.8" cy="143.9" r="9.4"/>
			<circle class="petal" cx="242.3" cy="169.1" r="9.4"/>
			<ellipse class="petal" cx="129.6" cy="317.5" rx="9.4" ry="9.4"/>
			<circle class="petal" cx="154.9" cy="502" r="9.4"/>
			<circle class="petal" cx="303.2" cy="614.6" r="9.4"/>
			<circle class="petal" cx="487.7" cy="589.4" r="9.4"/>
			<circle class="petal" cx="600.3" cy="441.1" r="9.4"/>
			<circle class="petal" cx="575.1" cy="256.5" r="9.4"/>
			<circle class="petal" cx="491.1" cy="171.1" r="9.4"/>
			<circle class="petal" cx="307" cy="142.9" r="9.4"/>
			<circle class="petal" cx="156.9" cy="253.2" r="9.4"/>
			<ellipse class="petal" cx="128.7" cy="437.3" rx="9.4" ry="9.4"/>
			<circle class="petal" cx="238.9" cy="587.4" r="9.4"/>
			<circle class="petal" cx="423" cy="615.6" r="9.4"/>
			<circle class="petal" cx="573.1" cy="505.3" r="9.4"/>
			<circle class="petal" cx="601.3" cy="321.2" r="9.4"/>
		</g>
	</g>
	<g id="human">
		<path class="human-inside" d="M245.6,1632.8h236c0,0,20.7-194.3,34-211.8c13.3-17.4,14.7-210.2,0-234.9c-14.7-24.7-53.3-76.7-53.3-76.7
		L457,876.7l-9.3-120.6l-98.7-38l-88,46l-2,214.7l8.7,92.7c0,0-44,134.7-46,138s-16.7,79.3-16.7,79.3S234.2,1602.2,245.6,1632.8z"/>
		<g id="Popup_1_">
			<path class="human-inside" d="M326.9,590.8c-1.3,2.7-3.7,63-11.7,82.3s-24.8,26.3,7.7,30.3s92.9-9.7,92.9-9.7l7.8-21.2
			c0,0-13.2-7.8-15.5-27.5s-5-56-5-56L326.9,590.8z"/>
			<path class="human-outside" d="M322.9,609.8c-97.3,11.3-91.8-78.9-74.5-117.6s20-59.3,26-89.3s20.7-60.6,70.6-67.3c49.9-6.7,64,26.7,64,26.7
			s22-12,38,8s12.7,77.3,22,95.3s60.3,146.5-63.7,145.2"/>
			<path class="human-outside" d="M322.2,597.9c0,0,4.8,56.3-9.9,69.7s-49.3,32-83.3,32s-78,16-81.3,88s-6,212.6-6,212.6s-27.3,33.3-37.3,106.6
			c-6.5,46.6-15.4,92.9-26.6,138.6c0,0-34.7,18-40,36s-38,62-34.7,68.7s14.7,8,24-10.7c9.4-18.7,19.4-22.7,19.4-22.7s-6,56.7-6.7,78
			s9.3,22.7,12,21.3c0,0,1.3,12,9.5,10.8c6.8-1,8.8-8.3,8.8-8.3s13,5.5,16.3-6.5c0,0,7.3,5.3,14-8.7c5.5-11.6,10-21.8,12-61.1
			c2-39.3,4.7-92.2,4.7-92.2c64-89.3,82.7-199.3,86.7-237.3c4-38,16.7-109.3,16.7-109.3s8.6,20.1,21,23.2c0,0,18.6,141.9,12.4,162
			c0,0-82.2,112.4-63.6,247.3s56.6,288.5,56.6,288.5"/>
			<path class="human-outside" d="M51.6,1338.7c0,0,36.9,11.3,52.9,3.3"/>
			<path class="human-outside" d="M51.8,1416c0,0,10.4-53.1,10.8-72.9"/>
			<path class="human-outside" d="M76.7,1344c0,0-2.4,54-8.2,76.1"/>
			<path class="human-outside" d="M92.1,1345.7c0,0,1.4,47.5-5.7,66.3"/>
			<path class="human-outside" d="M338.8,1624.5c9.9-59.5,19.3-289.5,19.3-289.5h13.6c0,0,7.4,249.3,14.9,290.3"/>
			<path class="human-outside" d="M405.6,594.5c0,0-2.9,59.7,11.8,73.1c14.7,13.4,49.3,32,83.3,32s78,16,81.3,88s6,212.6,6,212.6
			s27.3,33.3,37.3,106.6c6.5,46.6,15.4,92.9,26.7,138.6c0,0,34.7,18,40,36s38,62,34.7,68.7s-14.7,8-24-10.7s-19.3-22.7-19.3-22.7
			s6,56.7,6.7,78s-9.3,22.7-12,21.3c0,0-0.2,10.2-8.4,10.8c-7.4,0.6-10.4-11.4-10.4-11.4s-12.5,8.7-15.8-3.3c0,0-7.3,5.3-14-8.7
			c-5.5-11.6-10-21.8-12-61.1c-2-39.3-4.7-92.2-4.7-92.2c-64-89.3-82.6-199.3-86.6-237.3c-4-38-16.7-109.3-16.7-109.3
			s-8.6,20.1-21,23.2c0,0-18.6,141.9-12.4,162c0,0,82.2,112.4,63.6,247.3s-56.9,288.5-56.9,288.5"/>
			<path class="human-outside" d="M678.2,1338.7c0,0-36.8,11.3-52.8,3.3"/>
			<path class="human-outside" d="M678,1416c0,0-10.4-53.1-10.8-72.9"/>
			<path class="human-outside" d="M653.1,1344c0,0-0.2,49,8.2,77.1"/>
			<path class="human-outside" d="M637.6,1345.7c0,0-1.4,47.5,5.7,66.3"/>
			<path class="human-outside" d="M284.4,462.3c0,0-5.4,152.1,84.1,156.9c0,0,75.2-6,75.2-152.7"/>
			<path class="human-outside" d="M459,490.3c0,0-0.7,50.7-22,48.7"/>
			<path class="human-outside" d="M270.4,512.9c0,0,0.7,28.7,23.3,28"/>
			<path class="human-outside" d="M365.7,404.9c0,0-30.6,37.3-58.6,45.3s-32,26.7-33.3,39.3"/>
			<path class="human-outside" d="M362.4,404.9c0,0,29.3,37.3,57.3,45.3s32,26.7,33.3,39.3"/>
			<path class="human-outside" d="M272.7,691.1c0,0,24.4,98.5,91.1,130.2c0,0,61.4-24.4,93.2-130.2"/>
			<path class="human-outside" d="M142.4,917.7c0,0,36-5.3,73.1,15.9"/>
			<path class="human-outside" d="M587.2,917.7c0,0-36-5.3-73.1,15.9"/>
			<path class="human-outside" d="M220.8,819.2c0,0-31.8,129.2,57.2,109.1"/>
			<path class="human-outside" d="M509.7,819.2c0,0,31.8,129.2-57.2,109.1"/>
			<path class="human-outside" d="M190.1,1256.5c0,0,19.1-4.2,83.7,9.5c62.7,13.4,91.1,27.5,199.1-7.4c0,0,45.5-15.9,65.7-14.8"/>
		</g>
	</g>
	<g id="chakra1">
		<g id="Layer_2_2_">
			<g id="Layer_5">
				<path class="chakra" d="M365.8,279.2c0.7,0.8,1.2,1.7,1.7,2.6c1.7,5.7,5.3,10.6,10.2,14c3.4,2.5,6.6,5.3,10.4,8.3
				c1.3-1.1,2.7-2.2,4.1-3.2c0.8-0.5,2.1-0.9,2.8-0.6c0.6,0.4,1,1.8,1,2.7c-0.2,1.7-0.4,3.4-0.8,5.1l15,5.9
				c4.7,1.7,9.8,2.1,14.7,0.9c1-0.2,2.2,0.4,3.3,0.6c-0.3,1.1-0.3,2.6-1,3.4c-4.1,4.4-6.6,10.1-7,16.1c-0.4,4.1-1.3,8.2-2,12.8
				c1.6,0.6,3.2,1.2,4.7,2c0.9,0.5,1.7,1.3,2,2.3c0.1,0.6-1.1,1.6-1.9,2.1c-1.6,0.7-3.1,1.4-4.8,1.9c0.8,5.1,1.6,9.7,2.2,14.4
				c0.6,5.4,3,10.5,6.6,14.5c0.7,0.8,0.8,2.2,1.2,3.4c-1.2,0.2-2.4,0.9-3.5,0.7c-5.3-1.2-10.9-0.7-15.9,1.5
				c-4.3,1.9-8.8,3.5-13.5,5.3c0.3,1.7,0.6,3.4,0.7,5.1c0,0.9-0.3,2.3-0.9,2.7s-2,0-2.8-0.5c-1.4-1-2.8-2-4.1-3.2
				c-4.3,3.4-8.4,6.7-12.4,9.9c-3.9,3.1-6.7,7.4-8.2,12.2c-0.4,1.2-1.2,2.1-2.3,2.6c-1.6,0.4-2-1.2-2.4-2.4
				c-1.6-5.6-5.1-10.4-9.9-13.7c-3.5-2.6-6.9-5.5-10.7-8.5c-1.3,1.1-2.6,2.2-4,3.1c-0.9,0.6-2,0.8-3,0.6c-0.5-0.2-0.8-1.8-0.8-2.7
				c0.2-1.7,0.4-3.3,0.7-5c-5.9-2.3-11.3-4.5-16.9-6.5c-4.1-1.5-8.4-1.2-12.7-0.3c-1.1,0.2-2.3,0-3.2-0.7c-1.1-1.2-0.1-2.4,0.9-3.3
				c4.1-4.2,6.5-9.7,7-15.6c0.5-4.3,1.3-8.6,2-13.4c-1.6-0.6-3.1-1.2-4.7-1.9c-0.9-0.5-1.7-1.3-2-2.3c-0.1-0.6,1.1-1.6,1.9-2.1
				c1.7-0.9,3.5-1.4,4.7-2c-0.8-5.2-1.6-9.9-2.2-14.6c-0.6-5.3-3-10.3-6.8-14.2c-0.9-1-1.9-2-1-3.4c0.9-1.4,2.2-1,3.5-0.7
				c5.5,1.3,11.4,0.7,16.5-1.7c4-1.8,8.2-3.2,12.8-5c-0.3-1.7-0.5-3.4-0.7-5.1c0-0.9,0.2-2.3,0.9-2.7s2,0,2.8,0.5
				c1.4,1,2.8,2.1,4.1,3.2c4.4-3.5,8.5-6.7,12.5-10c3.8-3.1,6.5-7.2,7.9-11.9c0.5-1.1,1.1-2.1,1.7-3.1H365.8z M365.1,383.9
				c17.6,0,31.9-14.3,31.9-31.9c0-17.6-14.3-31.9-31.9-31.9c-17.6,0-31.9,14.2-31.9,31.8c-0.1,17.6,14.1,31.9,31.7,32
				C365,383.9,365.1,383.9,365.1,383.9z M309.7,383.7c3.1,0.3,6.2,0.8,9.2,1.4c2.8,0.9,5.6,2,8.3,3.3c2.2,0.9,4.5,1.6,6.8,2.5
				l0.5-0.5c-0.8-1.9-1.6-3.9-2.5-5.8c-2.2-5.1-2.9-5.5-8.6-4.8c-0.8,0.2-1.6,0.4-2.5,0.4c-1-0.1-2.5-0.3-2.7-0.8
				c-0.2-1,0-2.1,0.6-3c1.2-2.2,2.7-4.4,4-6.6c0.3-0.5,0.4-1.1,0.2-1.7c-2.1-2.9-4.3-5.6-6.7-8.9
				C313.6,367.6,315.4,376.6,309.7,383.7z M395.7,390.9c8.8-2.2,15.7-8,24.7-6.7c-1.2-2.8-2.5-5-3.1-7.5c-0.9-3.8-1.2-7.7-1.9-11.5
				c-0.3-1.9-0.8-3.8-1.3-6.2c-2.5,3.3-4.7,6-6.7,8.7c-0.3,0.6-0.3,1.3,0,1.9c1.3,2.2,2.7,4.4,4,6.6c0.5,0.9,1.1,2.3,0.7,2.9
				c-0.4,0.6-1.9,0.9-2.9,0.9c-2.5,0-5-0.2-7.5-0.2c-0.7,0-1.3,0.3-1.8,0.8C398.5,383.8,397.3,387,395.7,390.9L395.7,390.9z
				 M347.2,305.5l0.4,0.8c2.2,0.3,4.4,0.5,6.6,0.8c4.8,0.6,5.5,0.2,7.6-4.2c0.4-1.1,0.8-2.1,1.3-3.2c0.5-0.9,1.4-1.9,2.3-2
				c0.6-0.1,1.6,1.1,2,1.9c1.3,2.3,2.5,4.7,3.8,7c0.4,0.5,1,0.9,1.6,0.9c3.4-0.4,6.7-0.9,10.7-1.4c-6-6.6-14.8-9.6-18-18
				c-1.7,2.4-3.5,4.7-5.4,6.9c-2.1,1.9-4.3,3.7-6.5,5.3C351.4,302,349.3,303.8,347.2,305.5z M396.4,313.2l-0.4,0.6
				c1.3,3.2,2.6,6.4,4,9.6c0.4,0.5,1,0.7,1.6,0.7c2.6,0,5.1-0.2,7.7-0.2c1,0,2.5,0.2,2.9,0.9c0.4,0.7-0.2,2-0.7,2.9
				c-1.2,2.2-2.7,4.4-4,6.6c-0.3,0.6-0.3,1.3,0,1.9c2,2.8,4.1,5.4,6.6,8.6c2.7-8.5,1-17.5,6.7-24.8c-2.2-0.1-3.9,0.1-5.5-0.4
				c-4-1.2-8-2.6-11.9-4C401,314.9,398.7,314,396.4,313.2z M365,416.2c1.2-1.8,2-3.6,3.3-4.8c2.8-2.8,5.9-5.3,8.9-7.9
				c2-1.7,4-3.4,6.1-5l-0.3-0.6c-3.5-0.5-6.9-1-10.4-1.3c-0.6,0.1-1.1,0.5-1.4,1c-1.3,2.1-2.3,4.4-3.6,6.5c-0.7,0.9-1.4,1.8-2.3,2.5
				c-0.9-0.7-1.6-1.6-2.3-2.5c-0.7-1.1-1-2.6-1.6-3.8c-2-3.7-2.4-3.9-6.6-3.4c-1.1,0.1-2.3,0.2-3.4,0.3c-1.3,0.2-2.6,0.4-4.4,0.7
				C353,404.5,361.6,407.6,365,416.2z M334.6,313.2c-8.8,2-15.7,8-25.2,6.6c4.2,5.9,4.8,11.9,5.4,18c0.2,2.2,0.8,4.4,1.2,6.6
				c2.5-2.5,4.8-5.2,6.9-8.1c0.3-0.6,0.2-1.3-0.1-1.9c-1.3-2.2-2.8-4.3-4-6.6c-0.5-0.9-1-2.3-0.7-2.9c0.3-0.6,1.9-0.8,2.9-0.9
				c2.6,0,5.1,0.2,7.7,0.2c0.6,0,1.2-0.3,1.6-0.7C331.8,320.2,333,317,334.6,313.2z M415.6,352l-9.1-9.2L403,352
				c1.2,3.2,2.4,6.4,3.5,9.3L415.6,352z M327.3,352l-3.5-9.2l-9.1,9.2l9.1,9.3C324.9,358.3,326.1,355.2,327.3,352L327.3,352z
				 M339.9,395.7l12.6-3.2l-6.3-7.7l-9.7-1.6C337.6,387.3,338.8,391.7,339.9,395.7z M390.4,395.7c1.1-4.1,2.3-8.5,3.4-12.3
				c-2.8,0.3-5.9,0.6-9.1,1c-0.4,0-0.8,0.2-1.1,0.5c-2,2.6-3.9,5.3-5.6,7.6L390.4,395.7z M390.4,308.2l-12.4,3.2
				c1.7,2.3,3.5,4.8,5.4,7.4c0.2,0.3,0.6,0.6,1,0.7c3.2,0.4,6.5,0.8,9.3,1.1C392.7,316.7,391.5,312.4,390.4,308.2L390.4,308.2z
				 M336.5,320.6c2.7-0.3,5.8-0.7,8.8-1.1c0.4,0,1-0.1,1.2-0.3c2-2.7,4-5.4,5.9-8c-2.2-0.2-4.3-0.6-6.5-1.1c-2-0.6-4-1.4-6-2.2
				C338.8,312.2,337.6,316.7,336.5,320.6z M377.5,386.3c-8.3,2.6-17.1,2.5-25.3-0.4l12.9,11.4L377.5,386.3z M401.1,358.5
				c-1.9,8.5-6.5,16.1-13.1,21.7l16.3-5.5L401.1,358.5z M377.5,317.6l-12.3-10.9L353,317.5C361,315.1,369.5,315.2,377.5,317.6z
				 M341.6,324.2l-15.5,5.2l3.2,16.1C331.1,337.3,335.4,329.9,341.6,324.2z M388.8,324.2c6.2,5.7,10.4,13.2,12.3,21.4
				c1.1-5.6,2.3-11.1,3.3-16.2L388.8,324.2z M326,374.6l15.7,5.3c-6.4-5.9-10.7-13.7-12.3-22.2L326,374.6z"/>
			</g>
		</g>
		<rect x="299.1" y="279.2" class="overlay" width="131.8" height="145.4"/>
	</g>
	<g id="chakra2">
		<g id="Layer_2_3_">
			<g id="Layer_5_1_">
				<path class="chakra" d="M449.3,488.9c-6.7-1.7-12.6-5.4-17-10.7c-2.4-2.8-4.7-5.6-7-8.5c-7.2-9.3-16.8-13.6-28.4-13.8
				c-1.7,0-3.3-0.6-4.6-1.6c-16-12.2-38-12.4-54.2-0.5c-1.2,0.9-2.6,1.3-4.1,1.4c-11.8,0.1-21.6,4.2-29.1,13.5
				c-2.3,2.9-4.7,5.6-7.2,8.4c-4.4,5.1-10.3,8.6-16.8,10.1c-1.4,0.3-2.8,0.6-2.8,2.4c0,1.6,1.4,2,2.7,2.3c6.2,1.5,11.8,4.9,16,9.7
				c2.6,2.9,5.1,5.9,7.5,9c7.4,9.7,17.3,14.2,29.4,14.3c1.3,0.1,2.5,0.5,3.5,1.3c5.2,4,11.1,6.8,17.4,8.3c1.9,0.4,3.7,0.8,5.6,1.2
				l8.7,0.1c1.9-0.4,3.9-0.7,5.8-1.1c6.4-1.4,12.5-4.2,17.7-8.2c0,0,2.2-2.2,9.1-2.1c6.1,0.1,12.5-2.7,16.3-5.4
				c3.2-2.5,6.1-5.4,8.6-8.6c1.8-2.2,3.6-4.3,5.5-6.4c4.5-5.2,10.6-8.9,17.4-10.5c0.9-0.3,1.8-0.8,2.5-1.4v-1.8
				C451.1,489.7,450.2,489.2,449.3,488.9z M363.3,449.3c18.6-0.9,31.7,10.7,36.4,19.6l-69.4-0.7C338.6,456.4,349.3,450,363.3,449.3
				L363.3,449.3z M311.5,512c-1.7-1.7-3.4-3.6-4.9-5.5c-5.3-6.7-10.5-13.3-19-16.9c1.1-0.6,1.7-0.9,2.4-1.2
				c5.4-2.7,9.6-6.7,13.4-11.3c2.7-3.2,5.3-6.3,8.2-9.3c5.3-5.3,11.9-7.8,19.6-8.2c-15.2,20-15.5,40.1-0.7,60.6
				C323.1,519.7,316.7,517.1,311.5,512z M327.1,474.9c11.2,18.7,22.2,37.2,33.4,56C333.9,528.3,316.7,500.1,327.1,474.9z
				 M330.8,472.7l68.7,0.7l-34.9,55.9L330.8,472.7z M368.6,531l34.5-55.3C413.1,500.9,395.3,529,368.6,531L368.6,531z M441.8,491.3
				c-6.4,2.8-11.3,7.4-15.7,12.7c-2.3,2.8-4.6,5.5-7.1,8.1c-5.4,5.6-12.2,8.4-20.2,8.8c15.2-20.1,15.4-40.1,0.6-60.7
				c7.6,0.6,14.1,3.2,19.3,8.6c2.3,2.4,4.5,5,6.6,7.6c4.6,5.9,9.6,11.3,16.6,14.3C441.9,491.1,441.9,491.3,441.8,491.3z"/>
			</g>
		</g>
		<rect x="278.1" y="444.9" class="overlay" width="173.8" height="90.8"/>
	</g>
	<g id="chakra3">
		<g id="Layer_2_4_">
			<g id="Layer_5_2_">
				<path class="chakra" d="M300.7,665.2c1.1-0.4,2.2-0.8,3.3-1.2c2.5-0.8,5.1-1.4,7.5-2.4c2.4-1,4.9-2.3,7-3.3c-0.6-2.9-1-6.2-1.9-9.3
				c-0.6-2.1-2-4.1-2.8-6.2c-0.3-1.1-0.4-2.2-0.4-3.3c1-0.1,2.2-0.6,3.1-0.2c2.7,1.2,5.6,1.6,8.5,1.3c2.5-0.2,5.1-0.2,7.6-0.1
				c0.8-3,1.8-6.2,2.4-9.4c0.4-2.2-0.1-4.5,0.1-6.8c0-1,0.4-2,1.1-2.8c0.5-0.3,2.1,0.2,2.6,0.9c2.2,2.6,5.1,4.4,8.3,5.4
				c2,0.8,3.9,1.8,5.7,3c1.9-2.3,4.1-4.6,5.9-7.1c1.4-2,2.2-4.3,3.4-6.4c0.6-0.9,1.4-1.6,2.2-2.3c0.7,0.7,1.9,1.4,2.2,2.2
				c0.8,3,2.4,5.8,4.7,7.9c1.6,1.7,3,3.6,4.3,5.5c3-1.3,6.2-2.6,9.3-4.2c1.8-1,3.1-2.7,4.8-3.8c0.9-0.5,1.9-0.9,2.9-1.2
				c0.4,1,1.2,2.2,1,3.1c-0.5,2.9-0.2,5.8,0.7,8.6c0.7,2.6,1.2,5.2,1.5,7.9c1.7-0.1,3.7-0.6,5.7-0.4c4.1,0.5,8,0.5,11.8-1.5
				c0.7-0.2,1.5-0.1,2,0.4c0.4,0.7,0.6,2,0.2,2.4c-2.9,3.3-3.5,7.3-4,11.5c-0.3,1.5-0.8,3-1.5,4.5c3.1,1.7,6,3.6,9.3,5
				c2,0.9,4.3,0.9,6.4,1.4c0.8,0.2,2,0.7,2.2,1.3c0,0.9-0.4,1.7-1.1,2.2c-3.9,1.7-6.2,4.8-8.2,8.3c-1,1.4-2.1,2.7-3.3,3.8
				c1.9,2.5,3.7,5.3,5.9,7.8c1.5,1.7,3.5,2.8,5.2,4.3c0.7,0.7,1.7,1.8,1.6,2.6c-0.5,0.9-1.4,1.5-2.5,1.6c-3.1,0.1-6.2,1.1-8.8,2.9
				c-2.1,1.1-4.2,2.1-6.4,3c0.6,2.6,1,5.4,1.8,8s2,4.9,2.9,7.3c0.4,1,0.9,2.4,0.5,3.2c-0.7,1.5-2.1,0.7-3.4,0.4
				c-2.3-0.6-4.7-1.1-7.1-1.3c-3-0.2-6,0-8.6,0c-0.7,2.8-1.7,5.7-2.1,8.7c-0.4,2.4-0.2,5-0.4,7.4c-0.2,1-0.5,2-0.9,3
				c-1-0.3-2.5-0.4-3.1-1.1c-2-2.3-4.6-4-7.5-5c-2.2-0.9-4.3-2-6.3-3.1c-2,2.3-4.2,4.7-6.1,7.3c-1.3,1.8-2,4.1-3.1,6
				c-0.7,0.9-1.4,1.7-2.3,2.4c-0.7-0.8-1.9-1.5-2.2-2.5c-0.8-2.8-2.3-5.3-4.4-7.4c-1.6-1.8-3.2-3.8-4.6-5.8
				c-2.9,1.3-6.2,2.5-9.3,4.2c-1.8,1-3.1,2.7-4.8,3.8c-1,0.5-2.1,1-3.2,1.2c-0.3-1-1-2.1-0.8-3c0.5-3,0.2-6.1-0.8-9
				c-0.7-2.4-1.2-4.8-1.5-7.2c-2.9,0-6.1-0.2-9.2,0.1c-2.3,0.2-4.6,1-6.9,1.3c-1.1,0-2.2-0.1-3.3-0.3c0.2-1.1,0-2.4,0.6-3.3
				c1.6-2.3,2.7-5,3-7.8c0.4-2.5,1-5,1.7-7.4c-2.7-1.4-5.6-3.1-8.6-4.4c-1.9-0.8-4.1-1-6.1-1.6c-1.1-0.4-2.2-0.8-3.2-1.3v-1.8
				c6.6-2.2,8.3-9.3,13.1-12.7c-1.8-2.2-3.3-4.5-5.1-6.5s-3.8-3.6-5.7-5.4c-0.7-0.5-1.4-1.1-2.2-1.5V665.2z M345.1,682.1
				c0,10.7,8.6,19.3,19.2,19.4c10.7,0,19.3-8.6,19.4-19.2c0-10.7-8.6-19.3-19.2-19.4c0,0-0.1,0-0.1,0
				C353.8,662.9,345.1,671.5,345.1,682.1z M399.1,658.7c-3.4-7.8-17.6-19.5-34.5-19.5c-16.9,0-30.5,10.6-34.7,19.5H399.1z
				 M402.4,665L368.4,721C395.3,718.5,412.7,690.2,402.4,665L402.4,665z M360.4,720.9l-34-55.7C315.9,690.8,334.2,719,360.4,720.9
				L360.4,720.9z M399.1,663h-21.1c5.6,4.2,9.2,10.6,9.9,17.6C391.8,674.5,395.4,668.9,399.1,663z M350.6,663H330l10.5,17.2
				C341.5,673.4,345.1,667.2,350.6,663z M355.1,704.2l9.3,15.1c3.2-5.2,6.2-10.1,9.3-15.3C365.3,706.1,365.3,706.1,355.1,704.2
				L355.1,704.2z M404.1,658.1c4.3-3.4,3.2-8.6,4.6-13.2c-4.9,0.3-9.8-2-13.9,1.5C397.9,650.3,401,654.2,404.1,658.1L404.1,658.1z
				 M371.7,725.3h-14.6c-0.2,5.4,4.8,7.5,7.2,11.5C366.9,732.9,371.7,730.7,371.7,725.3z M406.7,663.1c1.1,4.8,2.1,9.5,3.2,14.2
				c5.5-0.9,6.5-6.2,9.7-9.5C411.1,662.8,410.7,662.7,406.7,663.1z M339.9,629.3c-0.6,4.7-4,8.8-1.6,13.5l13.1-6.3
				C349.2,631.6,343.9,631.8,339.9,629.3z M408.5,715.5c-1.4-4.5-0.2-9.6-4.3-12.8l-9.1,11.4C399.1,717.4,403.8,715.1,408.5,715.5z
				 M339.9,731.2c3.9-2.5,9.3-2.3,11.5-7.2l-13.1-6.3C335.9,722.5,339.3,726.6,339.9,731.2z M410.1,682.6
				c-1.2,5.4-2.3,10.1-3.3,14.8c5.2,1.2,8.4-2.9,12.5-4.5c-1.2-2.1-2.5-4-4-5.9C413.6,685.4,411.9,683.9,410.1,682.6z M371.7,635.2
				c0-5.4-4.8-7.6-7.4-11.5c-2.5,4-7.4,6.1-7.2,11.5H371.7z M333.7,646.4c-4.1-3.3-8.8-1-13.5-1.3c1.5,4.5,0.2,9.6,4.4,12.8
				L333.7,646.4z M320.3,715.5c4.8-0.4,9.5,1.9,13.4-1.4l-9.1-11.4C320.5,705.9,321.6,711,320.3,715.5z M318.8,677.3
				c1.1-4.8,2.2-9.5,3.2-14.2c-5.2-1.1-8.4,3-12.8,4.7C312.6,671,313.6,676.2,318.8,677.3z M318.8,683.2c-5.2,1.2-6.2,6.3-9.5,9.6
				c4.4,1.6,7.6,5.9,12.7,4.6L318.8,683.2z M377.4,636.4l13.1,6.3c2.2-4.7-1-8.8-1.7-13.5C384.9,631.8,379.5,631.6,377.4,636.4z
				 M390.5,717.7l-13.1,6.3c2.2,4.8,7.5,4.7,11.5,7.1C389.5,726.6,392.8,722.5,390.5,717.7z"/>
			</g>
		</g>
		<rect x="300.7" y="616.9" class="overlay" width="128.5" height="128.5"/>
	</g>
	<g id="chakra4">
		<g id="Layer_2_5_">
			<g id="Layer_5_3_">
				<path class="chakra" d="M352.4,895c-2.7,0.6-5.5,1.1-8.3,1.4c-2.5,0.2-5,0.3-7.1,2c-0.8,0.4-1.7,0.5-2.5,0.1
				c-0.6-0.4-0.8-1.5-0.9-2.3c-0.4-1.8-0.4-3.8-1.1-5.5c-1.4-3-3.4-5.7-2.8-8.5c-3.2-1.3-5.9-2.5-8.7-3.4c-2-0.7-4.1-0.9-6.1-1.5
				c-0.9-0.2-2-0.5-2.4-1.1c-0.4-0.6,0.1-1.6,0.3-2.5c0.6-2.1,1.6-4.2,1.8-6.4c0.2-2.9,0.2-5.8,2.4-8.5c-3.4-1.1-4.8-4-6.6-6.5
				c-1.1-1.6-2.9-2.8-4.4-4.2c-0.6-0.6-1.6-1.4-1.6-2.1c0-0.7,1-1.5,1.6-2.1c1.5-1.6,3.4-2.8,4.6-4.6c1.7-2.5,3.1-5.1,6.4-6.1
				c-1.8-2.3-2.7-5.2-2.3-8.2c0.2-2.5-0.5-4.9-1.9-6.9c-0.5-0.7-0.6-1.7-0.2-2.5c0.4-0.6,1.5-0.8,2.3-1c2.2-0.6,4.4-0.9,6.5-1.6
				c2.7-0.9,5.3-2,8.4-3.2c-0.7-3,1.6-5.8,3-9c0.7-1.4,0.6-3.2,0.9-4.8c0.2-0.9,0.4-2.1,1-2.5c0.6-0.4,1.8,0.1,2.7,0.3
				c2.2,0.5,4.3,1.5,6.5,1.7c2.9,0.2,5.8,0.2,8.4,2.4c1.1-3.3,3.9-4.8,6.4-6.5c1.7-1.1,2.8-3,4.3-4.5c0.7-0.6,1.4-1.5,2.2-1.6
				c0.9,0.1,1.6,0.7,2,1.5c1,2.4,3,3.7,5,5.1c2.2,1.5,4.1,3.4,6.5,5.4c2.1-2,5.5-1.6,8.9-1.8c1.7-0.1,3.3-1.1,4.9-1.6
				c0.9-0.3,2.2-0.9,2.8-0.5c0.7,0.3,0.8,1.7,1.1,2.6c0.6,2,0.9,4.1,1.6,6.1c0.9,2.8,2.1,5.4,3.3,8.5c2.8-0.7,5.5,1.4,8.4,2.8
				c1.6,0.8,3.5,0.7,5.2,1.2c1,0.2,2.2,0.4,2.7,1.1c0.4,0.5-0.2,1.8-0.4,2.7c-0.6,2.2-1.3,4.3-1.7,6.5c-0.6,2.7-0.9,5.4-1.5,8.6
				c2.7,0.8,4,3.9,5.9,6.6c1,1.5,2.8,2.5,4.1,3.8c0.7,0.6,1.6,1.4,1.7,2.1c0,0.7-0.9,1.5-1.6,2.2c-1.4,1.4-3.2,2.5-4.4,4.2
				c-1.8,2.6-3.1,5.5-6.7,6.6c2.3,2.7,2.2,5.7,2.5,8.6c0.2,2.1,1.2,4.2,1.8,6.2c0.2,0.9,0.6,2,0.2,2.7s-1.5,0.7-2.3,1
				c-2,0.5-4.1,0.8-6.1,1.4c-2.8,1-5.6,2.2-8.1,3.2c-1,2.5-2.2,5.2-3.1,8c-0.7,2-0.9,4.1-1.5,6.1c-0.2,0.9-0.5,2-1.1,2.5
				c-0.8,0.3-1.7,0.2-2.5-0.3c-2-1.6-4.3-1.7-6.7-1.9c-2.7-0.2-5.4-0.9-8.5-1.4c-0.8,2.6-3.6,3.9-6.2,5.7c-1.6,1.1-2.8,2.9-4.2,4.4
				c-0.6,0.7-1.4,1.6-2.1,1.6s-1.5-1-2.1-1.6c-1.6-1.6-2.9-3.5-4.8-4.7C355.7,898.8,353.4,897.4,352.4,895z M365,828.7
				c-3.9,0-7.8-0.1-11.7,0.1c-0.9,0.1-1.8,0.5-2.3,1.3c-3.1,4.9-6.1,9.9-9.1,14.9c-0.4,0.8-0.4,1.6,0,2.4c2.9,5,6,10,9.1,14.9
				c0.6,0.7,1.4,1.2,2.3,1.3c7.8,0.1,15.6,0.1,23.4,0c0.9-0.1,1.8-0.6,2.3-1.3c3.1-4.8,6-9.8,9-14.6c0.7-0.8,0.7-2,0-2.9
				c-3-4.8-6-9.6-8.8-14.5c-0.5-1-1.6-1.6-2.8-1.5C372.7,828.8,368.8,828.7,365,828.7z M368.9,805.2c4,6.6,7.6,12.6,11.4,18.5
				c0.6,0.5,1.4,0.8,2.2,0.8c3,0.1,6,0,8.9,0h8.7C392.4,813.2,382.4,806.9,368.9,805.2z M360.9,805.5c-10.2-0.5-27.6,10.4-30.3,19
				c5.9,0,11.8,0,17.6-0.1c0.8-0.2,1.6-0.7,2-1.5c2.2-3.4,4.2-6.9,6.3-10.4C358,810.3,359.5,807.9,360.9,805.5z M330.1,867.7
				c7.6,11.3,17.6,17.6,31,19.2c-3.9-6.5-7.6-12.5-11.2-18.4c-0.3-0.4-0.7-0.7-1.2-0.8C342.6,867.7,336.6,867.7,330.1,867.7z
				 M368.9,887c13.5-1.8,23.5-8,31-19.3c-6.5,0-12.5,0-18.5,0c-0.5,0.1-1,0.4-1.2,0.8C376.5,874.5,372.9,880.5,368.9,887z
				 M403.1,830.9c-3.1,5.1-5.9,9.7-8.7,14.3c-0.3,0.5-0.3,1.1-0.1,1.6c2.8,4.7,5.7,9.4,8.8,14.5C407,851.5,407,840.6,403.1,830.9z
				 M327.1,831.2c-4.1,7.7-4.1,22.5,0.1,29.7c2.9-4.8,5.8-9.4,8.6-14.1c0.2-0.4,0.2-0.8,0.1-1.2C332.9,840.8,330,836,327.1,831.2z
				 M375.6,824.4c-3.6-5.9-7-11.5-10.6-17.4l-10.6,17.4H375.6z M354.4,867.8l10.6,17.4c3.6-5.9,7-11.5,10.6-17.4H354.4z
				 M346.7,863.4l-8.1-13.2l-8.1,13.2H346.7z M383.4,863.3h16l-8-13.1L383.4,863.3z M391.4,842l8-13.1h-16L391.4,842z M330.6,828.8
				l8.1,13.2c2.8-4.6,5.3-8.8,8.1-13.2H330.6z M317.9,818.9c2.1,4.3-0.9,9.6,3.9,12.7c1.4-2.8,2.5-5.5,4-8.1c1.5-2.6,3.3-5,5.1-7.6
				C325.8,813.3,322.7,818.6,317.9,818.9z M334.7,811.7l15.7-9.1c-3.2-4.5-8.3-1.5-12.5-3.5C337.5,803.8,332.2,806.8,334.7,811.7z
				 M374.1,891h-18.1c0.6,5.5,6.5,5.6,8.9,8.9c2.1-1.4,3.9-2.6,5.8-3.8C372.4,895,374,893.4,374.1,891z M409.9,855.2
				c5.5-0.5,5.5-6.5,9.4-9.2c-3.9-2.5-3.9-8.6-9.4-9V855.2z M330.6,876.5l-9.1-15.8c-4.4,3.1-1.6,8.3-3.4,12.6
				C322.8,873.7,325.8,878.8,330.6,876.5z M412,873.3c-2.1-4.1,1.1-9.5-3.5-12.5l-9.1,15.7C404.2,878.9,407.3,873.7,412,873.3z
				 M320.1,837c-5.5,0.5-5.6,6.5-9,8.9c1.4,2.1,2.7,4,3.9,5.9c1.2,1.9,2.8,3.5,5.1,3.3L320.1,837z M392.1,799.5
				c-11,0.7-11,0.7-12.4,3.1l15.6,9C397.7,806.8,392.6,803.7,392.1,799.5z M408.5,831.5c4.4-3.2,1.5-8.4,3.2-12.1
				c-2.3-1.2-4.3-2.2-6.3-3.2c-2-1-4.2-1.6-6-0.4C402.5,821.1,405.5,826.2,408.5,831.5L408.5,831.5z M379.6,889.6
				c3,4.5,8.4,1.5,12.5,3.5c0.4-4.6,5.6-7.7,3.2-12.6L379.6,889.6z M374.1,801.2c-0.4-5.6-6.5-5.6-8.9-9c-2.1,1.4-4,2.7-5.9,3.9
				s-3.4,2.9-3.4,5.1L374.1,801.2z M337.8,892.6l7.9-0.4c1.9,0,3.7-1,4.7-2.6l-15.7-9.1C332.2,885.3,337.5,888.4,337.8,892.6z"/>
			</g>
		</g>
		<rect x="304.4" y="783.6" class="overlay" width="121.2" height="123.1"/>
	</g>
	<g id="chakra5">
		<g id="Layer_2_6_">
			<g id="Layer_5_4_">
				<path class="chakra" d="M379.4,967.4c3.5-3.5,7.3-4,11.4-3.6c2.8,0.3,5.5-0.4,7.8-2c0.8-0.5,1.9-0.7,2.8-0.3
				c0.7,0.7,0.9,1.8,0.7,2.7c-0.7,2.7-0.6,5.5,0.5,8.1c1.6,3.8,2.3,7.6,0.3,11.7c1.7,0.2,3.3,0,4.6,0.5c2.1,0.8,4,1.8,5.8,3.1
				c2.6,1.9,5.1,3.5,8.5,3.5c0.8,0,2.1,0.8,2.2,1.4c0.1,1-0.3,2-1.1,2.6c-2.2,1.7-3.7,4.1-4.4,6.8c-1,4.1-2.6,7.6-7,9.9
				c4.6,2.2,5.9,6.2,7.2,10.4c0.8,2.3,2.7,4.1,4.1,6.2c0.5,0.8,1.3,1.9,1.1,2.7c-0.5,0.8-1.4,1.4-2.4,1.5c-2.8,0.1-5.4,1.2-7.5,3
				c-3.1,2.7-6.5,4.6-11.4,3.8c2.6,5,0.7,9.4-0.7,13.9c-0.5,1.8,0.1,4,0,6.1c0,1,0,2.5-0.6,2.8c-1,0.4-2.1,0.3-3-0.3
				c-2.2-1.5-4.8-2.1-7.4-1.9c-4.3,0.4-8.3-0.1-11.7-3.6c-0.8,5.1-4.3,7.6-7.9,10.2c-1.8,1.3-2.9,3.6-4.3,5.4
				c-0.7,0.8-1.5,2.1-2.3,2.1c-0.8,0-1.6-1.2-2.3-2c-1.5-1.8-2.6-4.2-4.5-5.6c-3.5-2.6-7-5-7.7-10.2c-3.6,3.7-7.7,3.8-12,3.8
				c-2.4,0-4.7,1.2-7.1,1.9c-1,0.2-2.3,0.7-3.1,0.3c-0.6-0.3-0.8-1.9-0.6-2.8c0.8-2.6,0.6-5.4-0.4-7.8c-1.6-3.9-2.4-7.7-0.2-12.2
				c-5.5,0.9-9-2.2-12.8-4.9c-1.6-1.1-4-1.3-6-2c-0.8-0.3-2.1-0.8-2.4-1.5c-0.1-1,0.3-2,1.1-2.6c2.1-1.7,3.7-4,4.3-6.6
				c1-4.1,2.5-7.9,7-10c-3.7-2.2-6.3-6-7.1-10.3c-0.7-2.7-2.3-5.1-4.4-6.8c-0.6-0.6-1-1.5-0.8-2.4c0.5-0.8,1.4-1.2,2.3-1.3
				c2.6,0.2,5.2-0.7,7.1-2.6c3.2-3,6.7-5,11.8-4.4c-2.6-4.9-0.7-9.2,0.6-13.7c0.6-1.9,0-4,0.1-6.1c0-1.1-0.1-2.5,0.6-3
				c0.6-0.5,2,0,3,0.3c2.5,0.6,4.9,1.8,7.4,1.9c4.2,0.1,8.3,0.1,11.7,3.7c0.8-5.1,4.2-7.6,7.7-10.2c1.9-1.4,3-3.7,4.5-5.6
				c0.7-0.8,1.5-1.9,2.3-2c0.6-0.1,1.8,1,2.1,1.9c1,2.6,2.8,4.8,5.2,6.2C375.8,959.9,378.7,962.5,379.4,967.4z M399.4,994.6h-68.9
				L365,1051L399.4,994.6z M400,990.2c-8.9-12.9-20.5-19.6-35.7-19.4c-14.5,0.2-25.8,6.9-34.2,19.4L400,990.2z M327,996.8
				c-10.3,26.4,8.3,53.8,34,55.8C349.6,1033.9,338.4,1015.5,327,996.8L327,996.8z M403,996.9l-34,55.7
				C395.4,1050.5,413.4,1022.1,403,996.9L403,996.9z M319.3,1007.6l6-19.1c-5.2-0.5-7.7,5.1-12.7,6.3
				C316,998.9,315,1004.8,319.3,1007.6z M374.9,1056.7H355c1.5,5.2,7.3,6,10,10.4C367.6,1062.6,373.8,1061.9,374.9,1056.7z
				 M325.3,1035.2c-2.1-6.4-4.1-12.6-6.1-18.9c-4.4,2.8-3.2,8.8-6.4,12.3c2.2,1.5,4.2,2.7,6.1,4.1
				C320.9,1034,323,1035.5,325.3,1035.2z M375,967c-1.4-5.2-7.4-6-10-10.4c-2.6,4.6-8.7,5.2-9.9,10.4H375z M397.4,967.2
				c-4.9,2-10.2-0.9-14,2.5l16,11.7C401.4,976.6,397,972.4,397.4,967.2z M416.9,1028.9c-0.9-2.4-1.8-4.7-2.5-7
				c-0.7-2.3-1.5-4.6-3.5-5.6l-6.2,18.8c0.6,0.1,1.3,0,1.9-0.2C410,1033,413.5,1030.9,416.9,1028.9z M410.8,1007.4
				c4.5-2.7,3.2-8.7,6.7-12.7c-5.1-1.1-7.6-6.7-12.8-6.2C406.7,994.9,408.7,1001.1,410.8,1007.4z M383.3,1054.1
				c4,3.3,9.3,0.4,13.6,2.2c0.8-2.7,1.4-5,2.1-7.3c0.7-2.3,1.4-4.7,0.3-6.6C394,1046.3,388.7,1050.2,383.3,1054.1z M346.6,969.6
				c-3.9-3.4-9.2-0.4-13.7-2.3c-3.2,12.4-3.2,12.4-2.2,13.9L346.6,969.6z M332.6,1056.6c4.8-2.2,10.2,0.9,14.1-2.5l-16-11.7
				C328.6,1047.1,333,1051.3,332.6,1056.6z"/>
			</g>
		</g>
		<rect x="305.8" y="948.8" class="overlay" width="118.4" height="126.6"/>
	</g>
	<g id="chakra6">
		<g id="Layer_2_7_">
			<g id="Layer_5_5_">
				<path class="chakra" d="M322.5,1160c-0.7-5.6,0.4-11.2,3.1-16.1c3.2-6.1,4.5-12.4,2.8-19.3c-0.2-0.8,0.3-2.5,0.9-2.7
			c1-0.3,2.2,0,3,0.7c4.9,4.8,10.8,7.1,17.5,7.5c5.7,0.4,11.1,1.6,15.7,5.7c4.8-4.1,10.4-5.1,16.3-5.4c6.3-0.2,12.4-2.7,17-7
			c0.7-0.7,2.1-0.6,3.2-0.9c0.2,1,0.9,2.2,0.7,3.1c-1.5,5.8-0.9,12,1.7,17.4c2.5,5.4,4.8,10.8,3.7,17c0.1,0.6,0.4,1,0.9,1.3
			c5.4,2.2,8.5,6.7,11.9,11.1c2.5,3.1,5.3,6,8.5,8.6c1.7,1.4,4.1,1.8,6.1,2.9c0.8,0.4,2,1.3,2,2c-0.2,1-0.9,1.8-1.8,2.2
			c-7.1,1.8-12.1,6.3-16,12.2c-2.8,4.2-6.2,7.7-11,9.7c-0.6,0.3-1,1-1,1.6c0.4,4.8-0.6,9.5-2.8,13.7c-0.4,0.9-0.8,1.8-1.3,2.7
			c-2.8,5.4-3.5,11.5-2.2,17.4c0.2,1-0.5,2.1-0.8,3.2c-1.1-0.3-2.5-0.3-3.2-1c-5-5-11.2-7-18-7.4c-5.1-0.3-10-1.5-14.1-4.8
			c-0.5-0.3-1-0.4-1.6-0.2c-5,4-11.1,4.5-17.1,5c-5.7,0.4-11.1,2.7-15.3,6.6c-0.8,0.7-2.2,0.8-3.3,1.2c-0.3-1.1-1-2.4-0.7-3.4
			c1.4-5.6,0.9-11.5-1.6-16.8c-0.8-1.7-1.5-3.3-2.2-5c-1.7-3.7-2.3-7.8-1.9-11.8c0-0.8-0.4-1.6-1.1-2c-3.9-1.8-7.2-4.7-9.6-8.2
			c-1.3-1.8-2.6-3.6-3.9-5.4c-2.8-3.7-6.6-6.5-11-8c-0.8-0.3-1.6-0.6-2.3-1c-1.9-1.1-1.9-2.6-0.1-3.7c0.5-0.3,1.1-0.5,1.7-0.7
			c5.4-1.6,10.1-5,13.2-9.7c0.4-0.5,0.7-1,1.1-1.5C312.9,1165.9,316.9,1162.1,322.5,1160z M364.5,1229.1c25.2,0.2,45.2-19.9,44.4-46
			c-0.7-22.5-18.9-41.7-43.6-42c-24.3-0.2-44.2,19.3-44.4,43.6C320.7,1209,340.2,1228.9,364.5,1229.1z M358.5,1233.6l-0.1-0.7
			c-6.3-0.9-12.4-3-17.9-6.2c-5.5-3.3-10.4-7.6-14.4-12.5c0.6,9.1,7.8,16.4,5.9,26.6c6.4-4.6,13-4.7,19.6-5.5
			C354,1234.8,356.2,1234.2,358.5,1233.6L358.5,1233.6z M404,1156.7c-0.1-5.4-2.7-9.3-4.1-13.5s-2.1-8.6-3.1-12.9
			c-5,3.6-11.4,4-17.7,4.6c-2.6,0.4-5.1,0.9-7.6,1.6l0.1,0.8c6.3,0.9,12.3,3.1,17.7,6.2C395.1,1146.9,400,1151.4,404,1156.7
			L404,1156.7z M359.3,1136.9c-8.2-3.9-18.1-1.4-25.7-7.8c-0.3,8-0.8,9.5-3.9,16.4c-1.1,2.4-1.9,4.8-2.7,7.3
			c-0.2,0.8-0.3,1.6-0.3,2.5c4.2-4.8,9.2-9,14.8-12.2C347,1140,353,1137.9,359.3,1136.9z M410.2,1166.5l-0.6,0.3
			c4.7,12.1,4.7,25.5-0.2,37.5c7.6-5.2,10.4-15.1,20-18.6c-7.2-3.2-10.8-9.1-14.8-14.6C413.3,1169.5,411.8,1167.9,410.2,1166.5z
			 M300.6,1184.4c6.5,3,10.1,8.2,13.8,13.4c1.6,2.1,3.4,4,5.2,5.9l0.7-0.3c-4.9-12.5-4.7-24.9,0-37.6c-2,1.4-3.8,3.1-5.3,5
			C311.2,1176.1,307.5,1181.4,300.6,1184.4z M370.6,1233v0.6c2.1,0.7,4.3,1.3,6.5,1.7c6.6,0.8,13.2,1.3,19,5.2c0.1,0,0.3-0.1,0.1,0
			c0.4-2.9,0.5-5.8,1.4-8.4c1-3.4,2.7-6.6,4-10c0.9-2.3,1.5-4.8,2.2-7.2l-0.6-0.3C395.1,1224.9,383.4,1231.5,370.6,1233z"/>
				<path class="chakra" d="M365.3,1148.5c19,0.2,36,14.4,36.2,36.9c0.2,20.3-16.5,36.5-36.8,36.4c-20.2-0.4-36.3-17.2-35.8-37.5
			C329.4,1164.5,345.5,1148.6,365.3,1148.5z M388.6,1177.7c0.6-12.9-8.4-24-21.9-24.9c-12.8-1-24,8.5-25.1,21.3c0,0,0,0.1,0,0.1
			c-1.3,13.6,9.3,24.6,21.6,25.7C375,1200.9,387.8,1192,388.6,1177.7z M391.3,1166.3c3.3,13,1.2,24.2-9.7,32.3
			c-9.2,6.9-19.5,7.8-29.5,2.2c-14-7.9-17.1-20.3-12.8-35.3c-10.8,14.3-8,34.6,6.2,45.4c12.6,9.6,30.3,8.6,41.8-2.3
			C400.9,1195.5,398.9,1176.2,391.3,1166.3z"/>
			</g>
		</g>
		<rect x="300" y="1120" class="overlay" width="130" height="126.6"/>
	</g>
	<g id="chakra7">
		<g id="Layer_2_8_">
			<g id="Layer_5_6_">
				<path class="chakra" d="M415,1338.7c4.6,5.6,7.3,11.7,6.3,19c-0.5,3.1-1.2,6.1-2.1,9.1c-1.4,5.3-3.1,10.6-2,16.2
				c0.5,2.3,1.4,4.5,2,6.8c0.2,0.9,0.3,2.3-0.2,2.9c-0.9,0.5-1.9,0.6-2.8,0.2c-6.1-2.7-12.9-3-19.3-1c-3.1,0.9-6.2,1.7-9.3,2.5
				c-6.9,1.9-14.3,0.5-20-3.8l-2.5-1.8c-0.7,0.5-1.5,1-2.2,1.6c-5.8,4.5-13.3,6-20.4,4c-4.4-1.1-8.7-2.4-13.1-3.3
				c-5.1-1-10.3-0.4-15,1.7c-1,0.4-2.7,0.5-3.2-0.1s-0.5-2.3-0.1-3.2c2.7-6.1,2.7-12.3,1-18.6c-0.9-3.3-1.9-6.6-2.7-10
				c-1.8-6.9-0.3-14.3,4.1-20c0.5-0.7,1-1.4,1.5-2c0-0.1,0-0.2,0,0c-1.6-2.6-3.2-5-4.5-7.6c-2.5-5.3-2.2-10.8-0.8-16.4
				c0.9-3.3,1.9-6.6,2.7-10c1.5-5.7,1-11.6-1.3-17c-0.5-1.1-0.5-2.3,0.1-3.3c0.4-0.5,2.1-0.4,3,0c6.3,2.7,12.7,2.7,19.3,0.8l8.1-2.3
				c7.5-2.3,15.7-0.7,21.8,4.3c1.1,0.9,1.9,1,3.1,0c6.6-5.2,14.1-6.5,22.3-4.2c3.5,1,7,2,10.6,2.8c5.5,1.3,11.2,0.8,16.4-1.5
				c1-0.4,2.2-0.4,3.2,0.2c0.5,0.4,0.4,2.2,0,3.1c-2.5,5.7-2.9,12-1.2,18c0.9,3.4,1.9,6.8,2.8,10.2c2,7.2,0.5,14.9-4.1,20.8
				C416.1,1337.3,415.6,1337.9,415,1338.7z M336.2,1309.7v57.8h57.6v-57.8H336.2z M412.9,1333.6l0.9,0.2c1.2-2.6,2.2-5.3,3-8
				c1.3-5.2-0.5-10.1-2-15c-1.5-4.9-2.6-9.9-2.1-15.1c0.2-1.8,0.5-3.6,0.9-5.7c-7.4,2.1-14.3,0.7-21.2-1.3c-2.7-0.8-5.4-1.5-8.2-2
				c-5.2-0.8-9.9,0.5-14.6,4c11.7,1.4,21.4,5.9,29.4,13.9C406.9,1312.3,411.8,1322.6,412.9,1333.6L412.9,1333.6z M413.2,1343.4
				c-4.4,24.7-18.7,39.1-43.2,43.5c0.2,0.2,0.3,0.4,0.5,0.6c0.4,0.3,0.9,0.6,1.4,0.8c5.7,3.3,11.7,3,17.7,1.2
				c7.8-2.3,15.5-4.7,24.1-2c-1.6-5.7-1.5-11.8,0.2-17.5c0.9-3.3,1.9-6.6,2.7-10C418,1354.2,416.8,1348.2,413.2,1343.4L413.2,1343.4
				z M317.1,1334.1c1.4-11.8,6-21.5,14-29.6s17.7-12.5,29-14.2c-2.3-1.4-4.8-2.5-7.4-3.3c-4.9-1.4-9.7,0-14.4,1.5
				c-7,2.2-14,3.6-21.4,1.7c0-0.1-0.2,0.1-0.5,0.2c2,6.8,0.9,13.4-1.1,20c-0.8,2.6-1.5,5.3-2.1,8
				C312.1,1323.9,313.5,1329.7,317.1,1334.1z M360.2,1386.9c-24.7-4.4-39-18.8-43.3-43.2c-0.2,0.1-0.3,0.1-0.4,0.2
				c-0.2,0.2-0.4,0.5-0.5,0.8c-3.6,5.7-3.5,11.8-1.9,18.1c1.4,4.6,2.4,9.3,3.2,14c0.4,3.4-0.2,6.9-0.4,10.5c6.6-2,13.1-0.9,19.7,1
				c2.6,0.8,5.3,1.6,8,2.1C350,1391.6,355.7,1390.3,360.2,1386.9L360.2,1386.9z M393.1,1372.1h-56.4
				C353.3,1387,379.6,1385.1,393.1,1372.1z M331.7,1310.7c-8.6,9.6-12.3,22.7-10,35.4c1.3,7.9,4.7,15.2,10,21.2V1310.7z
				 M393.4,1305.3c-17.8-15.4-43.3-12.6-56.5,0H393.4z M398.4,1310.6v56.2C412.5,1351.6,412.3,1325.4,398.4,1310.6L398.4,1310.6z"/>
				<path class="chakra" d="M365,1320.9c6,0,12.1,0,18.1,0c2.9,0,3.8,1.5,2.3,3.9c-6.1,10-12.2,20-18.3,29.9c-1.3,2.2-3,2.2-4.4,0
				c-6.1-10-12.2-20-18.3-30c-1.4-2.3-0.5-3.9,2.2-3.9C352.8,1320.9,358.9,1320.9,365,1320.9z M365,1350.2l15.2-24.9h-30.4
				L365,1350.2z"/>
			</g>
		</g>
		<rect x="308.5" y="1282.1" class="overlay" width="113" height="113"/>
	</g>
</svg>
