<?xml version="1.0" encoding="utf-8"?>
<!-- Generator: Adobe Illustrator 25.2.0, SVG Export Plug-In . SVG Version: 6.00 Build 0)  -->
<svg version="1.1" id="Layer_1"
	xmlns="http://www.w3.org/2000/svg"
	xmlns:xlink="http://www.w3.org/1999/xlink" x="0px" y="0px" viewBox="0 0 287.3 287.5" style="enable-background:new 0 0 287.3 287.5;" xml:space="preserve">
	<style type="text/css">
	.st0{fill:#731745;stroke:#964774;stroke-width:3;stroke-miterlimit:10;}
	</style>
	<g id="Layer_2_1_">
		<g id="BG">
			<path class="st0" d="M40.5,232.2c87.1-71.5,0-120.9,0-120.9S-46.6,160.7,40.5,232.2z"/>
			<path class="st0" d="M175.9,176.3c11-112.1-85.5-85.5-85.5-85.5S63.7,187.3,175.9,176.3z"/>
			<path class="st0" d="M232,41c-71.5-87.1-120.9,0-120.9,0S160.5,128.1,232,41z"/>
			<path class="st0" d="M41.7-121.5c-61.1,71.5,0,120.9,0,120.9S102.8-50,41.7-121.5z"/>
			<path class="st0" d="M-73.4-74.7c7.4,93.8,85.5,85.5,85.5,85.5S20.4-67.3-73.4-74.7z"/>
			<path class="st0" d="M-121.7,39.8c71.5,61.1,120.9,0,120.9,0S-50.2-21.3-121.7,39.8z"/>
			<path class="st0" d="M-74.9,154.8c93.8-7.4,85.5-85.5,85.5-85.5S-67.5,61.1-74.9,154.8z"/>
			<path class="st0" d="M39.6,203.1c61.1-71.5,0-120.9,0-120.9S-21.5,131.6,39.6,203.1z"/>
			<path class="st0" d="M154.6,156.3c-7.4-93.8-85.5-85.5-85.5-85.5S60.9,149,154.6,156.3z"/>
			<path class="st0" d="M202.9,41.9c-71.5-61.1-120.9,0-120.9,0S131.4,103,202.9,41.9z"/>
			<path class="st0" d="M156.1-73.2c-93.8,7.4-85.5,85.5-85.5,85.5S148.8,20.6,156.1-73.2z"/>
			<path class="st0" d="M-115.2,99.2C-27.5,133.4-1,59.4-1,59.4S-67.8,17.9-115.2,99.2z"/>
			<path class="st0" d="M-25.6,191C60.6,153.2,27,82.1,27,82.1S-49.5,100.1-25.6,191z"/>
			<path class="st0" d="M102.7,192.6C136.9,105,62.9,78.5,62.9,78.5S21.5,145.2,102.7,192.6z"/>
			<path class="st0" d="M194.6,103C156.8,16.9,85.7,50.5,85.7,50.5S103.6,127,194.6,103z"/>
			<path class="st0" d="M196.2-25.3C108.5-59.4,82,14.6,82,14.6S148.8,56,196.2-25.3z"/>
			<path class="st0" d="M-2.8-72.5C-26.4-0.2,34.6,17.9,34.6,17.9S65-37.9-2.8-72.5z"/>
			<path class="st0" d="M-70.2-8.7c34.5,67.9,90.4,37.5,90.4,37.5S2.2-32.1-70.2-8.7z"/>
			<path class="st0" d="M-72.7,84.2c72.4,23.6,90.4-37.4,90.4-37.4S-38.1,16.4-72.7,84.2z"/>
			<path class="st0" d="M-8.9,151.7C59,117.2,28.7,61.3,28.7,61.3S-32.3,79.2-8.9,151.7z"/>
			<path class="st0" d="M84,154.2c23.6-72.4-37.4-90.5-37.4-90.5S16.2,119.6,84,154.2z"/>
			<path class="st0" d="M151.5,90.3C117,22.4,61.1,52.8,61.1,52.8S79,113.8,151.5,90.3z"/>
			<path class="st0" d="M154-2.6C81.6-26.2,63.5,34.8,63.5,34.8S119.4,65.2,154-2.6z"/>
			<path class="st0" d="M90.1-70C22.2-35.5,52.6,20.4,52.6,20.4S113.6,2.4,90.1-70z"/>
			<path class="st0" d="M-32-33.5c5.4,80.7,72.6,74.4,72.6,74.4S48.5-26.3-32-33.5z"/>
			<path class="st0" d="M-33.7,113.4c80.7-5.3,74.4-72.6,74.4-72.6S-26.5,32.9-33.7,113.4z"/>
			<path class="st0" d="M113.2,115.2c-5.3-80.7-72.6-74.4-72.6-74.4S32.7,107.9,113.2,115.2z"/>
			<path class="st0" d="M115-31.8c-80.7,5.4-74.4,72.6-74.4,72.6S107.7,48.7,115-31.8z"/>
			<circle class="st0" cx="114.9" cy="228.4" r="7.8"/>
			<circle class="st0" cx="225.8" cy="121" r="7.8"/>
			<circle class="st0" cx="81.6" cy="263.4" r="2.6"/>
			<circle class="st0" cx="163.6" cy="230.8" r="2.6"/>
			<circle class="st0" cx="226.9" cy="169.2" r="2.6"/>
			<circle class="st0" cx="261.9" cy="88.2" r="2.6"/>
			<circle class="st0" cx="263.2" cy="-0.1" r="2.6"/>
			<circle class="st0" cx="41.6" cy="258.4" r="5.1"/>
			<circle class="st0" cx="195.2" cy="194" r="5.1"/>
			<circle class="st0" cx="258.2" cy="39.8" r="5.1"/>
			<circle class="st0" cx="81.6" cy="263.4" r="2.6"/>
			<circle class="st0" cx="163.6" cy="230.8" r="2.6"/>
			<circle class="st0" cx="226.9" cy="169.2" r="2.6"/>
			<circle class="st0" cx="261.9" cy="88.2" r="2.6"/>
			<circle class="st0" cx="263.2" cy="-0.1" r="2.6"/>
			<circle class="st0" cx="35.8" cy="283.5" r="2.6"/>
			<circle class="st0" cx="129" cy="266.8" r="2.6"/>
			<circle class="st0" cx="208.8" cy="215.8" r="2.6"/>
			<circle class="st0" cx="262.9" cy="138.1" r="2.6"/>
			<circle class="st0" cx="283.3" cy="45.7" r="2.6"/>
			<path class="st0" d="M40.6-57c-49.5,57.9,0,97.9,0,97.9S90.1,0.8,40.6-57z"/>
			<path class="st0" d="M-57.2,40.8c57.9,49.4,97.9,0,97.9,0S0.6-8.6-57.2,40.8z"/>
			<path class="st0" d="M40.6,138.7c49.4-57.9,0-97.9,0-97.9S-8.8,80.8,40.6,138.7z"/>
			<path class="st0" d="M138.5,40.8c-57.9-49.5-97.9,0-97.9,0S80.6,90.3,138.5,40.8z"/>
			<circle class="st0" cx="-5.6" cy="216.9" r="7"/>
			<circle class="st0" cx="132.4" cy="198" r="7"/>
			<circle class="st0" cx="216.7" cy="87.1" r="7"/>
			<circle class="st0" cx="84" cy="217.6" r="7"/>
			<circle class="st0" cx="196.3" cy="135.1" r="7"/>
			<circle class="st0" cx="217.4" cy="-2.6" r="7"/>
		</g>
	</g>
</svg>
