<?xml version="1.0" encoding="utf-8"?>
<!-- Generator: Adobe Illustrator 25.2.0, SVG Export Plug-In . SVG Version: 6.00 Build 0)  -->
<svg version="1.1" id="Layer_1"
	xmlns="http://www.w3.org/2000/svg"
	xmlns:xlink="http://www.w3.org/1999/xlink" x="0px" y="0px" viewBox="0 0 287.3 287.5" style="enable-background:new 0 0 287.3 287.5;" xml:space="preserve">
	<style type="text/css">
	.st0{fill:#731745;stroke:#964774;stroke-width:3;stroke-miterlimit:10;}
	</style>
	<g id="Layer_2_1_">
		<g id="BG">
			<path class="st0" d="M53.8,40.7c71.5,87.1,120.9,0,120.9,0S125.3-46.4,53.8,40.7z"/>
			<path class="st0" d="M109.7,176.1c112.1,11,85.5-85.5,85.5-85.5S98.7,63.9,109.7,176.1z"/>
			<path class="st0" d="M245,232.2c87.1-71.5,0-120.9,0-120.9S157.9,160.7,245,232.2z"/>
			<path class="st0" d="M246.2-121.5c-61.1,71.5,0,120.9,0,120.9S307.3-50,246.2-121.5z"/>
			<path class="st0" d="M131.2-74.7c7.4,93.8,85.5,85.5,85.5,85.5S225-67.3,131.2-74.7z"/>
			<path class="st0" d="M82.9,39.8c71.5,61.1,120.9,0,120.9,0S154.4-21.3,82.9,39.8z"/>
			<path class="st0" d="M129.7,154.8c93.8-7.4,85.5-85.5,85.5-85.5S137,61.1,129.7,154.8z"/>
			<path class="st0" d="M244.1,203.1c61.1-71.5,0-120.9,0-120.9S183,131.6,244.1,203.1z"/>
			<path class="st0" d="M359.2,156.3c-7.4-93.8-85.5-85.5-85.5-85.5S265.4,149,359.2,156.3z"/>
			<path class="st0" d="M407.5,41.9c-71.5-61.1-120.9,0-120.9,0S336,103,407.5,41.9z"/>
			<path class="st0" d="M360.7-73.2c-93.8,7.4-85.5,85.5-85.5,85.5S353.3,20.6,360.7-73.2z"/>
			<path class="st0" d="M91-29.1C128.8,57,199.9,23.5,199.9,23.5S182-53,91-29.1z"/>
			<path class="st0" d="M89.4,99.2c87.7,34.2,114.2-39.8,114.2-39.8S136.8,17.9,89.4,99.2z"/>
			<path class="st0" d="M179,191c86.1-37.8,52.6-108.9,52.6-108.9S155.1,100.1,179,191z"/>
			<path class="st0" d="M307.3,192.6c34.2-87.7-39.8-114.2-39.8-114.2S226.1,145.2,307.3,192.6z"/>
			<path class="st0" d="M400.7-25.3c-87.6-34.2-114.2,39.8-114.2,39.8S353.3,56,400.7-25.3z"/>
			<path class="st0" d="M201.8-72.5c-23.6,72.4,37.4,90.4,37.4,90.4S269.6-37.9,201.8-72.5z"/>
			<path class="st0" d="M134.3-8.7c34.5,67.9,90.4,37.5,90.4,37.5S206.8-32.1,134.3-8.7z"/>
			<path class="st0" d="M131.8,84.2c72.4,23.6,90.4-37.4,90.4-37.4S166.4,16.4,131.8,84.2z"/>
			<path class="st0" d="M195.7,151.7c67.9-34.5,37.5-90.4,37.5-90.4S172.2,79.2,195.7,151.7z"/>
			<path class="st0" d="M288.6,154.2c23.6-72.4-37.4-90.5-37.4-90.5S220.8,119.6,288.6,154.2z"/>
			<path class="st0" d="M356,90.3c-34.5-67.9-90.4-37.5-90.4-37.5S283.6,113.8,356,90.3z"/>
			<path class="st0" d="M358.6-2.6c-72.4-23.6-90.5,37.4-90.5,37.4S323.9,65.2,358.6-2.6z"/>
			<path class="st0" d="M294.7-70c-67.9,34.5-37.5,90.4-37.5,90.4S318.1,2.4,294.7-70z"/>
			<path class="st0" d="M172.6-33.5c5.4,80.7,72.6,74.4,72.6,74.4S253.1-26.3,172.6-33.5z"/>
			<path class="st0" d="M170.8,113.4c80.7-5.3,74.4-72.6,74.4-72.6S178.1,32.9,170.8,113.4z"/>
			<path class="st0" d="M317.8,115.2c-5.3-80.7-72.6-74.4-72.6-74.4S237.3,107.9,317.8,115.2z"/>
			<path class="st0" d="M319.5-31.8c-80.7,5.4-74.4,72.6-74.4,72.6S312.3,48.7,319.5-31.8z"/>
			<circle class="st0" cx="57.6" cy="115.1" r="7.8"/>
			<circle class="st0" cx="165" cy="226" r="7.8"/>
			<circle class="st0" cx="22.6" cy="81.8" r="2.6"/>
			<circle class="st0" cx="55.2" cy="163.8" r="2.6"/>
			<circle class="st0" cx="116.8" cy="227.1" r="2.6"/>
			<circle class="st0" cx="197.8" cy="262.1" r="2.6"/>
			<circle class="st0" cx="286.1" cy="263.4" r="2.6"/>
			<circle class="st0" cx="27.6" cy="41.8" r="5.1"/>
			<circle class="st0" cx="92" cy="195.4" r="5.1"/>
			<circle class="st0" cx="246.2" cy="258.4" r="5.1"/>
			<circle class="st0" cx="22.6" cy="81.8" r="2.6"/>
			<circle class="st0" cx="55.2" cy="163.8" r="2.6"/>
			<circle class="st0" cx="116.8" cy="227.1" r="2.6"/>
			<circle class="st0" cx="197.8" cy="262.1" r="2.6"/>
			<circle class="st0" cx="286.1" cy="263.4" r="2.6"/>
			<circle class="st0" cx="2.6" cy="36" r="2.6"/>
			<circle class="st0" cx="19.2" cy="129.2" r="2.6"/>
			<circle class="st0" cx="70.2" cy="209" r="2.6"/>
			<circle class="st0" cx="147.9" cy="263.1" r="2.6"/>
			<circle class="st0" cx="240.4" cy="283.5" r="2.6"/>
			<path class="st0" d="M245.2-57c-49.5,57.9,0,97.9,0,97.9S294.6,0.8,245.2-57z"/>
			<path class="st0" d="M147.3,40.8c57.9,49.4,97.9,0,97.9,0S205.2-8.6,147.3,40.8z"/>
			<path class="st0" d="M245.2,138.7c49.4-57.9,0-97.9,0-97.9S195.7,80.8,245.2,138.7z"/>
			<path class="st0" d="M343,40.8c-57.9-49.5-97.9,0-97.9,0S285.2,90.3,343,40.8z"/>
			<circle class="st0" cx="69.1" cy="-5.4" r="7"/>
			<circle class="st0" cx="88" cy="132.6" r="7"/>
			<circle class="st0" cx="198.9" cy="216.9" r="7"/>

			<ellipse transform="matrix(0.9985 -5.530035e-02 5.530035e-02 0.9985 -4.5541 3.9109)" class="st0" cx="68.4" cy="84.2" rx="7" ry="7"/>
			<circle class="st0" cx="150.9" cy="196.5" r="7"/>
			<circle class="st0" cx="288.6" cy="217.6" r="7"/>
		</g>
	</g>
</svg>
